<?xml version="1.0" encoding="UTF-8"?>
<svg width="20px" height="20px" viewBox="0 0 20 20" version="1.1" xmlns="http://www.w3.org/2000/svg" xmlns:xlink="http://www.w3.org/1999/xlink">
    <!-- Generator: Sketch 52.5 (67469) - http://www.bohemiancoding.com/sketch -->
    <title>Group 3</title>
    <desc>Created with Sketch.</desc>
    <defs>
        <polygon id="path-1" points="0.0003 0.0005 20 0.0005 20 20 0.0003 20"></polygon>
    </defs>
    <g id="App" stroke="none" stroke-width="1" fill="none" fill-rule="evenodd">
        <g id="Detalle-de-procedimiento" transform="translate(-64.000000, -216.000000)">
            <g id="Historial" transform="translate(32.000000, 186.000000)">
                <g id="1">
                    <g id="Icono" transform="translate(22.100000, 20.800000)">
                        <g id="Group-3" transform="translate(9.900000, 9.200000)">
                            <mask id="mask-2" fill="white">
                                <use xlink:href="#path-1"></use>
                            </mask>
                            <g id="Clip-2"></g>
                            <path d="M13.8013,11.6055 C13.7453,12.7695 13.1693,13.5775 12.3333,14.3435 C11.9373,14.7075 11.5343,15.0645 11.1313,15.4195 C10.3763,16.0855 9.2453,16.0855 8.4873,15.4235 C8.0543,15.0455 7.6223,14.6685 7.2013,14.2775 C6.3803,13.5135 5.8453,12.7015 5.8063,11.5525 C5.7733,10.6095 6.2273,9.7225 7.1593,9.4025 C8.1353,9.0655 9.0513,9.4855 9.6493,10.2435 C9.7263,10.3415 9.8813,10.3395 9.9593,10.2405 C10.5133,9.5325 11.3423,9.1185 12.2713,9.3495 C13.3223,9.6105 13.8503,10.5755 13.8013,11.6055 Z M18.0003,17.0005 C18.0003,17.5525 17.9763,18.0005 17.4243,18.0005 L3.4243,18.0005 C2.8723,18.0005 2.0003,17.5525 2.0003,17.0005 L2.0003,3.0005 C2.0003,2.4475 2.8723,2.0005 3.4243,2.0005 L6.7793,2.0005 C7.1613,2.0005 7.5093,2.2165 7.6773,2.5605 L8.8133,4.8785 C9.1493,5.5655 9.8453,6.0005 10.6093,6.0005 L17.4243,6.0005 C17.9763,6.0005 18.0003,6.4475 18.0003,7.0005 L18.0003,17.0005 Z M18.4243,4.0005 L11.6603,4.0005 C10.9033,4.0005 10.2103,3.5725 9.8713,2.8945 L8.9773,1.1055 C8.6383,0.4275 7.9463,0.0005 7.1883,0.0005 L2.4243,0.0005 C1.3193,0.0005 0.0003,0.8955 0.0003,2.0005 L0.0003,18.0005 C0.0003,19.1045 1.3193,20.0005 2.4243,20.0005 L18.4243,20.0005 C19.5293,20.0005 20.0003,19.1045 20.0003,18.0005 L20.0003,6.0005 C20.0003,4.8955 19.5293,4.0005 18.4243,4.0005 Z" id="Fill-1" fill="#4B3348" mask="url(#mask-2)"></path>
                        </g>
                    </g>
                </g>
            </g>
        </g>
    </g>
</svg>