<?xml version="1.0" encoding="UTF-8"?>
<svg width="237px" height="147px" viewBox="0 0 237 147" version="1.1" xmlns="http://www.w3.org/2000/svg" xmlns:xlink="http://www.w3.org/1999/xlink">
    <!-- Generator: Sketch 52.5 (67469) - http://www.bohemiancoding.com/sketch -->
    <title>Logotipo Renew</title>
    <desc>Created with Sketch.</desc>
    <defs>
        <rect id="path-1" x="0" y="0" width="236.965948" height="146.829466"></rect>
        <rect id="path-3" x="0" y="0" width="236.965948" height="146.829466"></rect>
        <rect id="path-5" x="0" y="0" width="236.965948" height="146.829466"></rect>
        <rect id="path-7" x="0" y="0" width="236.965948" height="146.829466"></rect>
        <rect id="path-9" x="0" y="0" width="236.965948" height="146.829466"></rect>
        <rect id="path-11" x="0" y="0" width="236.965948" height="146.829466"></rect>
        <rect id="path-13" x="0" y="0" width="236.965948" height="146.829466"></rect>
        <rect id="path-15" x="0" y="0" width="236.965948" height="146.829466"></rect>
        <rect id="path-17" x="0" y="0" width="236.965948" height="146.829466"></rect>
        <rect id="path-19" x="0" y="0" width="236.965948" height="146.829466"></rect>
        <rect id="path-21" x="0" y="0" width="236.965948" height="146.829466"></rect>
        <rect id="path-23" x="0" y="0" width="236.965948" height="146.829466"></rect>
        <rect id="path-25" x="0" y="0" width="236.965948" height="146.829466"></rect>
        <rect id="path-27" x="0" y="0" width="236.965948" height="146.829466"></rect>
        <rect id="path-29" x="0.0340517241" y="0.102320186" width="56.2875" height="22.9197216"></rect>
        <rect id="path-31" x="0" y="0" width="236.965948" height="146.829466"></rect>
        <rect id="path-33" x="0" y="0" width="236.965948" height="146.829466"></rect>
        <rect id="path-35" x="0" y="0" width="236.965948" height="146.829466"></rect>
        <rect id="path-37" x="0" y="0" width="236.965948" height="146.829466"></rect>
        <rect id="path-39" x="0" y="0" width="236.965948" height="146.829466"></rect>
    </defs>
    <g id="App" stroke="none" stroke-width="1" fill="none" fill-rule="evenodd">
        <g id="Login" transform="translate(-69.000000, -178.000000)">
            <g id="Logotipo-Renew" transform="translate(69.000000, 178.000000)">
                <g>
                    <mask id="mask-2" fill="white">
                        <use xlink:href="#path-1"></use>
                    </mask>
                    <g id="SVGID_1_"></g>
                    <g id="Group" mask="url(#mask-2)">
                        <g id="Clipped">
                            <mask id="mask-4" fill="white">
                                <use xlink:href="#path-3"></use>
                            </mask>
                            <g id="SVGID_3_"></g>
                            <path d="M10.2836207,141.201856 L14.3698276,146.693039 L11.9521552,146.693039 L7.01465517,139.939907 L7.25301724,139.939907 C7.59353448,139.939907 7.9,139.939907 8.20646552,139.871694 C8.51293103,139.80348 8.81939655,139.735267 9.09181034,139.59884 C9.60258621,139.3942 10.0452586,139.155452 10.4538793,138.848492 C10.8625,138.541531 11.237069,138.166357 11.5094828,137.72297 C11.8159483,137.279582 12.0202586,136.836195 12.1905172,136.324594 C12.3607759,135.812993 12.4288793,135.267285 12.4288793,134.721578 C12.4288793,133.97123 12.2926724,133.289095 12.0202586,132.675174 C11.7478448,132.027146 11.3732759,131.481439 10.8965517,131.003944 C10.4198276,130.52645 9.875,130.151276 9.22801724,129.878422 C8.58103448,129.605568 7.9,129.469142 7.18491379,129.469142 L1.90689655,129.469142 L1.90689655,146.727146 L0,146.727146 L0,127.559165 L7.15086207,127.559165 C8.17241379,127.559165 9.09181034,127.763805 9.97715517,128.138979 C10.8625,128.514153 11.6116379,129.025754 12.2586207,129.673782 C12.9056034,130.32181 13.4163793,131.072158 13.7909483,131.958933 C14.1655172,132.845708 14.3698276,133.766589 14.3698276,134.755684 C14.3698276,135.471926 14.2676724,136.15406 14.0633621,136.802088 C13.8590517,137.450116 13.5866379,138.064037 13.212069,138.643852 C12.8375,139.223666 12.4288793,139.735267 11.9181034,140.178654 C11.4413793,140.553828 10.8625,140.894896 10.2836207,141.201856" id="Path" fill="#000000" mask="url(#mask-4)"></path>
                        </g>
                        <g id="Clipped">
                            <mask id="mask-6" fill="white">
                                <use xlink:href="#path-5"></use>
                            </mask>
                            <g id="SVGID_3_"></g>
                            <polygon id="Path" fill="#000000" mask="url(#mask-6)" points="38.3081897 129.435035 25.8452586 129.435035 25.8452586 136.15406 35.8905172 136.15406 35.8905172 138.064037 25.8452586 138.064037 25.8452586 144.783063 38.3081897 144.783063 38.3081897 146.693039 23.9383621 146.693039 23.9383621 127.525058 38.3081897 127.525058"></polygon>
                        </g>
                        <g id="Clipped">
                            <mask id="mask-8" fill="white">
                                <use xlink:href="#path-7"></use>
                            </mask>
                            <g id="SVGID_3_"></g>
                            <polygon id="Path" fill="#000000" mask="url(#mask-8)" points="47.8767241 146.693039 47.8767241 127.525058 60.3056034 141.304176 60.3056034 127.525058 62.2125 127.525058 62.2125 146.693039 49.7836207 132.913921 49.7836207 146.693039"></polygon>
                        </g>
                        <g id="Clipped">
                            <mask id="mask-10" fill="white">
                                <use xlink:href="#path-9"></use>
                            </mask>
                            <g id="SVGID_3_"></g>
                            <polygon id="Path" fill="#000000" mask="url(#mask-10)" points="86.1508621 129.435035 73.7219828 129.435035 73.7219828 136.15406 83.7672414 136.15406 83.7672414 138.064037 73.7219828 138.064037 73.7219828 144.783063 86.1508621 144.783063 86.1508621 146.693039 71.8150862 146.693039 71.8150862 127.525058 86.1508621 127.525058"></polygon>
                        </g>
                        <g id="Clipped">
                            <mask id="mask-12" fill="white">
                                <use xlink:href="#path-11"></use>
                            </mask>
                            <g id="SVGID_3_"></g>
                            <polygon id="Path" fill="#000000" mask="url(#mask-12)" points="108.182328 127.525058 110.089224 127.525058 110.089224 146.693039 102.90431 135.8471 95.7193966 146.693039 95.7193966 127.525058 97.6603448 127.525058 97.6603448 140.417401 102.90431 132.3 108.182328 140.042227"></polygon>
                        </g>
                        <g id="Clipped">
                            <mask id="mask-14" fill="white">
                                <use xlink:href="#path-13"></use>
                            </mask>
                            <g id="SVGID_3_"></g>
                            <polygon id="Path" fill="#000000" mask="url(#mask-14)" points="126.434052 146.317865 137.977586 146.317865 137.977586 146.79536 125.957328 146.79536 125.957328 127.525058 126.434052 127.525058"></polygon>
                        </g>
                        <g id="Clipped">
                            <mask id="mask-16" fill="white">
                                <use xlink:href="#path-15"></use>
                            </mask>
                            <g id="SVGID_3_"></g>
                            <path d="M148.703879,146.79536 L157.693534,127.525058 L158.272414,127.525058 L167.262069,146.79536 L166.717241,146.79536 L163.822845,140.587935 L152.177155,140.587935 L149.31681,146.79536 L148.703879,146.79536 Z M152.415517,140.110441 L163.550431,140.110441 L157.965948,128.138979 L152.415517,140.110441 Z" id="Shape" fill="#000000" fill-rule="nonzero" mask="url(#mask-16)"></path>
                        </g>
                        <g id="Clipped">
                            <mask id="mask-18" fill="white">
                                <use xlink:href="#path-17"></use>
                            </mask>
                            <g id="SVGID_3_"></g>
                            <path d="M186.467241,132.50464 C186.467241,130.048956 184.492241,128.070766 182.040517,128.070766 C179.588793,128.070766 177.613793,130.048956 177.613793,132.50464 C177.613793,134.960325 179.588793,136.938515 182.040517,136.938515 C184.764655,136.938515 186.978017,139.155452 186.978017,141.883991 C186.978017,144.612529 184.764655,146.829466 182.040517,146.829466 C179.316379,146.829466 177.103017,144.612529 177.103017,141.883991 L177.579741,141.883991 C177.579741,144.339675 179.554741,146.351972 182.006466,146.351972 C184.45819,146.351972 186.43319,144.373782 186.43319,141.918097 C186.43319,139.462413 184.45819,137.450116 182.006466,137.450116 C179.282328,137.450116 177.068966,135.233179 177.068966,132.50464 C177.068966,129.776102 179.282328,127.559165 182.006466,127.559165 C184.730603,127.559165 186.943966,129.810209 186.943966,132.50464 L186.467241,132.50464 Z" id="Path" fill="#000000" mask="url(#mask-18)"></path>
                        </g>
                        <g id="Clipped">
                            <mask id="mask-20" fill="white">
                                <use xlink:href="#path-19"></use>
                            </mask>
                            <g id="SVGID_3_"></g>
                            <polygon id="Path" fill="#000000" mask="url(#mask-20)" points="200.632759 127.525058 212.618966 127.525058 212.618966 128.036659 201.143534 128.036659 201.143534 136.699768 211.835776 136.699768 211.835776 137.211369 201.143534 137.211369 201.143534 146.283759 212.618966 146.283759 212.618966 146.79536 200.632759 146.79536"></polygon>
                        </g>
                        <g id="Clipped">
                            <mask id="mask-22" fill="white">
                                <use xlink:href="#path-21"></use>
                            </mask>
                            <g id="SVGID_3_"></g>
                            <path d="M224.775431,127.525058 L231.27931,127.525058 C231.27931,127.525058 233.731034,127.388631 235.603879,129.503248 C235.603879,129.503248 237,131.038051 237,133.254988 C237,135.437819 235.501724,138.677958 231.381466,138.950812 L235.910345,146.829466 L235.297414,146.829466 L230.462069,138.473318 C230.462069,138.473318 233.220259,138.712065 234.82069,136.972622 C234.82069,136.972622 236.421121,135.676566 236.421121,133.254988 C236.421121,130.833411 234.480172,128.036659 231.245259,128.036659 C228.010345,128.036659 225.252155,128.036659 225.252155,128.036659 L225.252155,146.829466 L224.775431,146.829466 L224.775431,127.525058 Z" id="Path" fill="#000000" mask="url(#mask-22)"></path>
                        </g>
                        <g id="Clipped">
                            <mask id="mask-24" fill="white">
                                <use xlink:href="#path-23"></use>
                            </mask>
                            <g id="SVGID_3_"></g>
                            <path d="M135.423707,71.8969838 C135.423707,71.8969838 116.422845,70.6009281 106.65,47.1013921 C106.65,47.1013921 100.043966,32.0603248 109.544397,16.6099768 C119.044828,1.15962877 119.044828,0 119.044828,0 C119.044828,0 115.33319,8.28793503 124.867672,18.2812065 C134.368103,28.274478 142.949138,41.5078886 143.732328,50.5802784 C144.515517,59.6867749 142.540517,66.9515081 135.423707,71.8969838" id="Path" fill="#F1DADC" mask="url(#mask-24)"></path>
                        </g>
                        <g id="Clipped">
                            <mask id="mask-26" fill="white">
                                <use xlink:href="#path-25"></use>
                            </mask>
                            <g id="SVGID_3_"></g>
                            <path d="M134.640517,73.0566125 C134.640517,73.0566125 122.211638,68.6568445 111.655603,72.2721578 C101.099569,75.9215777 100.963362,86.1535963 97.387931,90.5533643 C93.8125,94.9531323 87.7512931,100.171462 85.0952586,101.33109 C85.0952586,101.33109 94.8681034,99.25058 101.474138,99.0118329 C108.080172,98.7389791 128.000431,97.2041763 131.575862,84.9939675 C135.151293,72.7837587 134.640517,73.0566125 134.640517,73.0566125" id="Path" fill="#4F3249" mask="url(#mask-26)"></path>
                        </g>
                        <g id="Clipped">
                            <mask id="mask-28" fill="white">
                                <use xlink:href="#path-27"></use>
                            </mask>
                            <g id="SVGID_3_"></g>
                            <g id="Group" opacity="0.8" mask="url(#mask-28)">
                                <g transform="translate(78.318966, 67.872390)">
                                    <g>
                                        <g id="Clipped">
                                            <mask id="mask-30" fill="white">
                                                <use xlink:href="#path-29"></use>
                                            </mask>
                                            <g id="SVGID_5_"></g>
                                            <path d="M56.3215517,5.18422274 C56.3215517,5.18422274 44.4034483,-0.170533643 33.2344828,0.136426914 C22.0655172,0.443387471 19.8521552,7.33294664 15.0849138,10.4707657 C10.3176724,13.6085847 2.92844828,16.7464037 0.0681034483,17.0533643 C0.0681034483,17.0533643 10.0112069,18.0083527 16.3788793,19.7136891 C22.7465517,21.4531323 40.6577586,27.5582367 49.2047414,16.8828306 C55.5043103,8.93596288 56.3215517,5.18422274 56.3215517,5.18422274" id="Path" fill="#D8CBD1" mask="url(#mask-30)"></path>
                                        </g>
                                    </g>
                                </g>
                            </g>
                        </g>
                        <g id="Clipped">
                            <mask id="mask-32" fill="white">
                                <use xlink:href="#path-31"></use>
                            </mask>
                            <g id="SVGID_3_"></g>
                            <path d="M143.085345,68.3839907 C143.085345,68.3839907 144.413362,66.6445476 145.843534,68.0088167 C147.478017,69.5095128 144.481466,71.0443155 144.106897,71.3171694 C143.698276,71.5900232 142.234052,71.8969838 142.234052,71.8969838 C142.234052,71.8969838 140.463362,72.1698376 139.646121,75.5464037 C138.896983,78.5819026 134.776724,83.8343387 133.959483,84.4823666 C133.176293,85.1303944 132.393103,84.8575406 133.823276,81.7538283 C135.2875,78.650116 137.943534,73.5682135 143.085345,68.3839907" id="Path" fill="#D1BD86" mask="url(#mask-32)"></path>
                        </g>
                        <g id="Clipped">
                            <mask id="mask-34" fill="white">
                                <use xlink:href="#path-33"></use>
                            </mask>
                            <g id="SVGID_3_"></g>
                            <path d="M145.843534,65.7918794 C145.843534,65.7918794 153.368966,57.3675174 152.585776,44.2705336 C152.585776,44.2705336 152.075,40.1095128 149.691379,40.1095128 C147.307759,40.1095128 150.338362,44.6457077 150.610776,45.5665893 C150.88319,46.4533643 153.777586,52.4220418 145.843534,65.7918794" id="Path" fill="#D1BD86" mask="url(#mask-34)"></path>
                        </g>
                        <g id="Clipped">
                            <mask id="mask-36" fill="white">
                                <use xlink:href="#path-35"></use>
                            </mask>
                            <g id="SVGID_3_"></g>
                            <path d="M146.252155,66.1329466 C146.252155,66.1329466 155.275862,60.437123 158,48.3974478 C158,48.3974478 158.612931,44.5092807 156.467672,43.8953596 C154.322414,43.2814385 155.854741,48.1587007 155.854741,49.0454756 C155.854741,49.9322506 156.910345,56.0714617 146.252155,66.1329466" id="Path" fill="#D1BD86" mask="url(#mask-36)"></path>
                        </g>
                        <g id="Clipped">
                            <mask id="mask-38" fill="white">
                                <use xlink:href="#path-37"></use>
                            </mask>
                            <g id="SVGID_3_"></g>
                            <path d="M118.125431,127.422738 L118.125431,146.829466" id="Path" stroke="#D1BD86" stroke-width="0.7875" mask="url(#mask-38)"></path>
                        </g>
                        <g id="Clipped">
                            <mask id="mask-40" fill="white">
                                <use xlink:href="#path-39"></use>
                            </mask>
                            <g id="SVGID_3_"></g>
                            <polygon id="Path" fill="#000000" mask="url(#mask-40)" points="158.170259 126.263109 160.349569 124.489559 160.383621 125.2058 158.306466 126.501856"></polygon>
                        </g>
                    </g>
                </g>
            </g>
        </g>
    </g>
</svg>