<svg id="Layer_1" data-name="Layer 1" xmlns="http://www.w3.org/2000/svg" viewBox="0 0 586.601 315.097"><defs><style>.cls-1{fill:#fff;}</style></defs><title>logo</title><path class="cls-1" d="M307.865,411.767l0.708,0.223-0.3.449-1.612,2.467-0.16.038c-2.458.527-4.039,0.84-4.8,0.946a23.7,23.7,0,0,1-2.984.153c-4.6,0-7.973-1.068-10.049-3.292a11.113,11.113,0,0,1-3.047-7.825,12.129,12.129,0,0,1,1.565-5.918,11.31,11.31,0,0,1,4.5-4.481,14.808,14.808,0,0,1,9.941-1.29,18.136,18.136,0,0,1,2.26.694l1.007,0.39,0.061,0.029-0.182.359,0.388-.137,0.994,2.841H305.2l-0.122-.116a9.71,9.71,0,0,0-7.117-3.015,9.4,9.4,0,0,0-6.871,2.52,8.072,8.072,0,0,0-2.6,6.077,13.885,13.885,0,0,0,1.182,5.154,10.893,10.893,0,0,0,3.7,4.764,10.028,10.028,0,0,0,6.1,1.856,14.787,14.787,0,0,0,4.657-.763,7.465,7.465,0,0,0,3.323-2l0.168-.2ZM331.675,403a13.177,13.177,0,0,1-3.457,9.262,11.905,11.905,0,0,1-9.167,3.779h-0.035a10.331,10.331,0,0,1-10.644-10.414,13.7,13.7,0,0,1,1.421-5.88,11.922,11.922,0,0,1,11.125-6.856,10.777,10.777,0,0,1,7.735,2.886A9.6,9.6,0,0,1,331.675,403Zm-3.359,6.773a7.909,7.909,0,0,0,1.193-4.116,9.766,9.766,0,0,0-1.62-5.5,11.464,11.464,0,0,0-4.223-3.9,10.064,10.064,0,0,0-4.764-1.412,8.05,8.05,0,0,0-5.574,2.321,7.486,7.486,0,0,0-2.5,5.734,11.155,11.155,0,0,0,3.1,7.818,9.2,9.2,0,0,0,6.894,3.352,8.691,8.691,0,0,0,4.216-1.146A8.561,8.561,0,0,0,328.315,409.771Zm19.206-15.927v0.405h0.611a1.028,1.028,0,0,1,.764.235,5.208,5.208,0,0,1,.229,2.009v14.513a7.621,7.621,0,0,1-5.825,2.912,5.326,5.326,0,0,1-3.711-1.5c-1.038-.948-1.611-2.59-1.611-5.025v-11.9a1.484,1.484,0,0,1,.213-1.038,1.875,1.875,0,0,1,1.039-.206h0.4v-1.031h-6.566v1.031h0.413a1.675,1.675,0,0,1,1,.182,2.442,2.442,0,0,1,.175,1.223v12.979a7.05,7.05,0,0,0,2.016,5.293,7.5,7.5,0,0,0,5.392,1.924,9.964,9.964,0,0,0,7.062-2.894V415.7h4.918v-1.038h-0.4a1.6,1.6,0,0,1-.857-0.145,0.572,0.572,0,0,1-.26-0.32,4.976,4.976,0,0,1-.082-1.244V395.309a1.375,1.375,0,0,1,.16-0.839,2.183,2.183,0,0,1,1.06-.221l0.383-.024v-1.007h-6.522v0.626Zm25.89-.632v1.039h0.412a1.735,1.735,0,0,1,.917.213,1.579,1.579,0,0,1,.243,1.16v14.265l-15.66-16.677h-4.657v1.077l0.45-.038a1.692,1.692,0,0,1,.214-0.008,1.755,1.755,0,0,1,1.849.892,7.37,7.37,0,0,1,.5,2.986v14.66a4.132,4.132,0,0,1-.2,1.664,1.475,1.475,0,0,1-1.056.222h-0.4v1.03H361v-0.977l-0.352-.053a4.736,4.736,0,0,1-.956-0.206,0.529,0.529,0,0,1-.16-0.274,3.622,3.622,0,0,1-.09-1.009v-15L376.725,416.6V395.83a2.207,2.207,0,0,1,.252-1.3,1.582,1.582,0,0,1,1.046-.281l0.4-.008v-1.031h-5.009Zm23.622-.747h-0.289l-0.092.281a0.491,0.491,0,0,1-.283.374,4.246,4.246,0,0,1-1.106.092H380.878a3.338,3.338,0,0,1-.948-0.075,1,1,0,0,1-.312-0.443l-0.114-.229h-1.069l1.244,3.176,0.1,0.26h1.047l-0.162-.527a2.556,2.556,0,0,1-.1-0.473,0.167,0.167,0,0,0-.009-0.1,4.144,4.144,0,0,1,.924-0.068h5.009v18.446a2.311,2.311,0,0,1-.19,1.215,1.92,1.92,0,0,1-1.093.274l-0.382.023V415.7h6.688v-1.03h-0.4a3.029,3.029,0,0,1-.888-0.093,0.486,0.486,0,0,1-.267-0.3,4.316,4.316,0,0,1-.145-1.406V394.732h5.239a2.082,2.082,0,0,1,.626.068l-0.022.06a2.366,2.366,0,0,1-.038.534l-0.131.5H396.5l1.138-2.88,0.214-.556h-0.817Zm24.32,21.739-0.216.167a7.422,7.422,0,0,1-4.84,1.535,5.341,5.341,0,0,1-3.49-1.207c-0.984-.817-2.542-2.855-4.81-6.239l-0.015-.021-2.047-3.161-1.718.054h-1.344v7.879a2.6,2.6,0,0,0,.2,1.222,1.111,1.111,0,0,0,.924.229H404.4v1.04H398v-1.016l0.389-.015a1.393,1.393,0,0,0,.978-0.26,3.238,3.238,0,0,0,.191-1.4V395.8a3.433,3.433,0,0,0-.191-1.245,1,1,0,0,0-.963-0.3l-0.4-.008v-1.031h6.559c1.565,0,2.7.039,3.421,0.107a6.148,6.148,0,0,1,2.29.734,4.351,4.351,0,0,1,1.824,1.732,5.337,5.337,0,0,1,.611,2.634,6.024,6.024,0,0,1-1.061,3.375,8.289,8.289,0,0,1-2.571,2.426l1.311,2.018c0.313,0.551,1.2,1.849,2.634,3.835a13.368,13.368,0,0,0,3.2,3.52,4.269,4.269,0,0,0,2.086.6,4.689,4.689,0,0,0,2.29-.778l0.442-.274,0.152,0.5Zm-12.929-11.4a3.974,3.974,0,0,0,1.176-3.031,5.959,5.959,0,0,0-1.2-3.55c-0.747-1.047-2.076-1.612-4.153-1.619h-1.375v9.354h1.863A5.062,5.062,0,0,0,408.425,402.8Zm21.174-9.591v1.039h0.5c0.221,0.061.184,0,.221,0.077a0.543,0.543,0,0,1-.114.252,1.117,1.117,0,0,1-.206.313l-4.49,6.809-4.031-6.656a1.917,1.917,0,0,1-.314-0.657c0.047-.131,0-0.077.314-0.138h0.405v-1.039h-5.934v1.223l0.49-.184a1.869,1.869,0,0,1,1.434,1.153l5.314,8.8-0.061,8.948,0.031,0.634c-0.062.68-.2,0.824-1.038,0.886h-0.2l-0.429-.022V415.7H428.1v-1.03h-0.4a1.482,1.482,0,0,1-1.04-.228,2.483,2.483,0,0,1-.221-1.315V403.2l5.23-7.81a3.425,3.425,0,0,1,.788-0.908,1.763,1.763,0,0,1,.832-0.23l0.374-.03v-1.009H429.6Zm36.245,18.777-0.7-.223-0.252-.075-0.175.2a7.435,7.435,0,0,1-3.315,2,14.8,14.8,0,0,1-4.665.763,9.988,9.988,0,0,1-6.093-1.856,10.911,10.911,0,0,1-3.7-4.764,14.081,14.081,0,0,1-1.182-5.154,8.1,8.1,0,0,1,2.6-6.077,9.427,9.427,0,0,1,6.872-2.52,9.736,9.736,0,0,1,7.124,3.015l0.122,0.116h0.955l-1-2.841-0.382.137,0.183-.359-0.06-.029-1.007-.39a18.55,18.55,0,0,0-2.261-.694,14.806,14.806,0,0,0-9.94,1.29,11.282,11.282,0,0,0-4.507,4.481,12.121,12.121,0,0,0-1.558,5.918,11.051,11.051,0,0,0,3.047,7.825c2.069,2.224,5.445,3.292,10.042,3.292a23.877,23.877,0,0,0,2.993-.153c0.755-.106,2.344-0.419,4.8-0.946l0.162-.038,1.611-2.467Zm14.294-2.315-0.022.4a5.225,5.225,0,0,1-.878,3.284,3.3,3.3,0,0,1-2.5.809h-2.65a4.664,4.664,0,0,1-2.955-.7,3.075,3.075,0,0,1-.793-2.452V395.8a4.983,4.983,0,0,1,.075-1.131,0.594,0.594,0,0,1,.267-0.274,1.81,1.81,0,0,1,.909-0.145h0.413v-1.039h-6.628v1.024l0.4,0.016a1.55,1.55,0,0,1,1.069.244,2.6,2.6,0,0,1,.185,1.16v17.729a1.84,1.84,0,0,1-.216,1.055,1.4,1.4,0,0,1-1,.228h-0.4v1.03h15.745v-6.023h-1.017Zm15.741-15.831v0.405h0.611a1,1,0,0,1,.764.235,5.027,5.027,0,0,1,.228,2.009v14.513a7.62,7.62,0,0,1-5.824,2.912,5.326,5.326,0,0,1-3.712-1.5c-1.038-.948-1.61-2.59-1.61-5.025v-11.9a1.476,1.476,0,0,1,.214-1.038,1.87,1.87,0,0,1,1.038-.206H488v-1.031h-6.574v1.031h0.413a1.674,1.674,0,0,1,1,.182,2.435,2.435,0,0,1,.175,1.223v12.979a7.047,7.047,0,0,0,2.017,5.293,7.5,7.5,0,0,0,5.392,1.924,9.961,9.961,0,0,0,7.061-2.894V415.7H502.4v-1.038H502a1.6,1.6,0,0,1-.856-0.145,0.564,0.564,0,0,1-.26-0.32,5.477,5.477,0,0,1-.083-1.244V395.309a1.39,1.39,0,0,1,.16-0.839,2.189,2.189,0,0,1,1.061-.221l0.383-.024v-1.007h-6.522v0.626ZM102,383.793l583.8,0.269v-3.771L102,380.024v3.769h0Zm213.008-65.418,372.425,0.27,0.008-3.771L315.008,314.6v3.777h0Zm-166.941.268H242.8v-3.769H148.066v3.769h0Zm-31.022,54.88a24.772,24.772,0,0,0,9.2-1.589,18.754,18.754,0,0,0,6.636-4.316,17.826,17.826,0,0,0,3.949-6.189,20.267,20.267,0,0,0,1.3-7.2,15.942,15.942,0,0,0-1.384-6.231,20.507,20.507,0,0,0-3.461-5.292,36.422,36.422,0,0,0-4.6-4.317q-2.444-1.91-6.189-4.6-3.5-2.524-5.457-4.031a31,31,0,0,1-3.746-3.42,16.061,16.061,0,0,1-2.809-4.03,10.2,10.2,0,0,1-1.018-4.478,7.233,7.233,0,0,1,.894-3.461,10.8,10.8,0,0,1,2.362-2.973,11.172,11.172,0,0,1,3.3-2.036,9.7,9.7,0,0,1,3.623-.732,20.686,20.686,0,0,1,5.905.937,13.86,13.86,0,0,1,5.333,2.891,8.311,8.311,0,0,1,1.385,1.629,22.883,22.883,0,0,1,1.384,2.442q1.383,2.607,1.955,2.605a0.623,0.623,0,0,0,.447-0.488,2.38,2.38,0,0,0,.2-0.9q0-1.872-.326-5.537-0.409-3.828-.407-5.944c0-.488-0.164-0.733-0.49-0.733a5.847,5.847,0,0,0-2.117.488,5.165,5.165,0,0,1-1.791.409,28.133,28.133,0,0,1-5.211-.735,33.135,33.135,0,0,0-5.294-.65,18.866,18.866,0,0,0-7.654,1.465,15.286,15.286,0,0,0-5.5,3.949,16.832,16.832,0,0,0-3.216,5.5,18.512,18.512,0,0,0-1.059,6.188,13.634,13.634,0,0,0,1.18,5.7,17.721,17.721,0,0,0,3.175,4.765,34.218,34.218,0,0,0,4.276,3.908q2.278,1.753,5.863,4.193,3.338,2.281,5.537,3.95a31.377,31.377,0,0,1,4.072,3.7,17.246,17.246,0,0,1,2.971,4.4,12.017,12.017,0,0,1,1.1,5.13,10.755,10.755,0,0,1-1.182,5.09,11.563,11.563,0,0,1-3.095,3.746A13.994,13.994,0,0,1,122.907,369a13.666,13.666,0,0,1-4.4.773,17.335,17.335,0,0,1-6.8-1.751,15.856,15.856,0,0,1-5.9-4.112,12.746,12.746,0,0,1-1.71-2.728,31.275,31.275,0,0,1-1.22-3.135,3.217,3.217,0,0,0-.652-1.385,1.175,1.175,0,0,0-1.018.936,5.21,5.21,0,0,0-.366,1.914,23.974,23.974,0,0,0,.162,2.729q0.163,1.425.407,2.973l0.083,0.65a9.5,9.5,0,0,0,.488,3.42,2.738,2.738,0,0,0,1.955,1.63q0.08,0,2.117.57,3.5,1.058,5.863,1.546A25.285,25.285,0,0,0,117.044,373.523ZM167.532,332.4l-3.012-6.677h-1.793q-1.709,0-4.07-.083t-3.747-.162l0.162,0.407a12.692,12.692,0,0,1,3.544,2.973,5.443,5.443,0,0,1,1.425,3.38,4.432,4.432,0,0,1-.164.975l-15.96,33.39a10.818,10.818,0,0,1-7.086,6.025l-0.407.325a45.7,45.7,0,0,1,5.782-.325,39.726,39.726,0,0,1,5.374.325v-0.325a3.409,3.409,0,0,1-1.221-2.281,6.1,6.1,0,0,1,.652-2.2l0.162-.406,5.863-13.274q4.887-.406,9.04-0.407,3.987,0,8.713.407l5.05,12.216a4.292,4.292,0,0,1,.569,2.2,4.016,4.016,0,0,1-1.14,2.2,3.1,3.1,0,0,0-.9,1.547v0.325a60.485,60.485,0,0,1,7.656-.487,54.888,54.888,0,0,1,7.248.487v-0.406a10.068,10.068,0,0,1-5.946-5.7Zm1.874,19.381q-4.887.166-7.411,0.163-2.607,0-7.329-.163v-0.326l7.654-16.041h0.164l6.921,16.041v0.326Zm61.726-26.548v0.49a6.111,6.111,0,0,1,2.728,2.644,11.525,11.525,0,0,1,.775,3.625v0.162q0.243,4.236.366,8.8t0.122,8.957q0,8.553-.081,12.785h-0.407l-36.158-37.134q-1.3,0-2.809-.122t-3.3-.285h-0.49l0.164,0.488a8.1,8.1,0,0,1,3.012,2.727,7.772,7.772,0,0,1,1.06,3.3v0.407q0.081,1.875.081,5.944V344.2q-0.083,4.888-.081,5.782,0,11.481-.164,17.264a4.639,4.639,0,0,1-1.059,3.014,7.205,7.205,0,0,1-2.687,2.036v0.49q0.406,0,1.3-.083a29.156,29.156,0,0,1,3.175-.162q4.073,0,7.412.326v-0.49a5.8,5.8,0,0,1-2.892-2.117,6.871,6.871,0,0,1-1.1-3.339q-0.409-9.527-.407-17.1,0-1.384-.081-4.4-0.083-3.176-.083-4.8,0-3.092.164-4.643h0.407l36.157,36.32q1.546,1.71,1.955,1.71c0.435,0,.651-0.381.651-1.139,0-.109-0.027-0.38-0.081-0.816q-0.084-.974-0.083-1.872-0.163-3.744-.162-6.515,0-2.2.081-7.735,0.08-3.99.081-6.107v-7.656q0-6.675.326-9.69a12.443,12.443,0,0,1,.937-4.072,4.909,4.909,0,0,1,2.566-2.6v-0.407q-4.561.325-6.924,0.326a22.191,22.191,0,0,1-2.768-.245Q231.785,325.313,231.132,325.231Zm47.8-19.545q-1.629,0-4.926-.243t-7.043-.571l-0.571-.081,0.162,0.894a11.657,11.657,0,0,1,4.643,3.91,9.993,9.993,0,0,1,1.629,4.8q0.323,6.108.488,12.621t0.163,12.787q0,6.271-.082,11.889t-0.243,13.355a7.864,7.864,0,0,1-1.384,4.316,9.148,9.148,0,0,1-3.339,2.931v0.651q4.476-.406,8.387-0.406t9.2,0.406V372.3a7.544,7.544,0,0,1-3.541-3.054,10.259,10.259,0,0,1-1.344-4.682q-0.326-5.7-.49-12.786t-0.162-13.518h1.465a13.953,13.953,0,0,0,1.548.081q0.977,0,2.85-.081h2.85q2.932,0,4.887.163a19.365,19.365,0,0,1,5.414,1.1,6.149,6.149,0,0,1,3.38,3.135l1.059,0.081q-0.083-1.3-.162-2.362a23.391,23.391,0,0,1-.164-2.931q0-1.3.081-2.159c0.053-.568.136-1.261,0.245-2.076q0.163-1.3.245-2.279h-0.814a7.008,7.008,0,0,1-3.258,2.972,14.867,14.867,0,0,1-4.479.692,4.818,4.818,0,0,1-1.058.082h-1.3c-0.6.054-1.058,0.081-1.384,0.081q-1.709,0-5.292-.163-3.747-.161-5.7-0.162,0-2.2-.081-6.27v-5.946q0-4.153.162-7.49l0.083-1.467a19.493,19.493,0,0,1,.569-4.315q1.629-.081,4.8-0.325,3.584-.327,5.211-0.326a28.142,28.142,0,0,1,9.447,1.223,9.125,9.125,0,0,1,4.479,3.011,11.651,11.651,0,0,1,.57,1.142,1.652,1.652,0,0,0,1.059,1.14c0.326,0,.488-0.245.488-0.732a28.274,28.274,0,0,0-.245-3.176,29.144,29.144,0,0,1-.407-4.4q0-1.058-2.239-1.384a41.246,41.246,0,0,0-5.742-.326q-2.687,0-8.632.407l-2.281.162q-3.338.165-5.618,0.245T278.932,305.686Zm39.17,20.6q-1.792,0-3.746-.121t-3.582-.285v0.57a6.6,6.6,0,0,1,3.175,2.483,8.224,8.224,0,0,1,.978,3.461q0.243,5.292.366,9.73t0.122,8.1q0,11.481-.081,17.264a4.08,4.08,0,0,1-1.506,2.893,12.864,12.864,0,0,1-3.218,2.076v0.568q1.712-.163,3.746-0.242t3.829-.083q2.278,0,7.165.325h0.245v-0.487a6.567,6.567,0,0,1-2.89-1.955,6.445,6.445,0,0,1-1.018-3.42q-0.489-6.189-.49-15.309,0.652,0,2.281-.082,1.71-.161,2.605-0.162h3.42a85.974,85.974,0,0,1,7.331,8.632q2.6,3.585,4.6,5.9a34.442,34.442,0,0,0,4.4,4.276,20.338,20.338,0,0,0,5.375,3.135,17.627,17.627,0,0,0,6.556,1.181,13.312,13.312,0,0,0,3.786-.692q2.237-.693,2.239-1.425a0.33,0.33,0,0,0-.407-0.326q-0.571,0-1.548.081t-1.466.083a10.921,10.921,0,0,1-5.456-1.589,24.073,24.073,0,0,1-5.292-4.193,63.75,63.75,0,0,1-4.724-5.456q-2.2-2.851-5.05-6.922-1.872-2.607-2.6-3.584a14.118,14.118,0,0,0,3.094-1.221,13.329,13.329,0,0,0,4.641-4.724,12.163,12.163,0,0,0,.082-12.3,11.3,11.3,0,0,0-4.724-4.561,17.228,17.228,0,0,0-4.886-1.629,27.422,27.422,0,0,0-5.13-.568q-1.955,0-5.782.242Q320.3,326.292,318.1,326.289Zm3.42,6.352q0-1.872.081-2.687a3.437,3.437,0,0,1,.409-1.384l0.407-.081q2.849-.246,4.315-0.245a35.7,35.7,0,0,1,4.724.285,9.919,9.919,0,0,1,3.665,1.181,9.308,9.308,0,0,1,3.664,3.584,9.543,9.543,0,0,1,1.3,4.8q0,5.7-2.85,8.306t-9.935,2.6h-2.523q-2.444.084-3.584,0.083v-7.33Q321.2,335.574,321.523,332.642ZM397.5,332.4l-3.014-6.677H392.7q-1.711,0-4.072-.083t-3.746-.162l0.164,0.407a12.693,12.693,0,0,1,3.541,2.973,5.434,5.434,0,0,1,1.424,3.38,4.461,4.461,0,0,1-.16.975L373.884,366.6a10.82,10.82,0,0,1-7.083,6.025l-0.407.325a45.65,45.65,0,0,1,5.78-.325,39.752,39.752,0,0,1,5.375.325v-0.325a3.413,3.413,0,0,1-1.222-2.281,6.134,6.134,0,0,1,.651-2.2l0.164-.406,5.863-13.274q4.884-.406,9.039-0.407,3.99,0,8.715.407l5.047,12.216a4.294,4.294,0,0,1,.57,2.2,4.03,4.03,0,0,1-1.139,2.2,3.1,3.1,0,0,0-.9,1.547v0.325a60.479,60.479,0,0,1,7.654-.487,54.888,54.888,0,0,1,7.248.487v-0.406a10.063,10.063,0,0,1-5.945-5.7Zm1.871,19.381q-4.884.166-7.41,0.163-2.6,0-7.328-.163v-0.326l7.654-16.041h0.162l6.922,16.041v0.326ZM461.1,325.231v0.49a6.117,6.117,0,0,1,2.728,2.644,11.514,11.514,0,0,1,.773,3.625v0.162q0.243,4.236.365,8.8t0.123,8.957q0,8.553-.082,12.785H464.6l-36.158-37.134q-1.3,0-2.809-.122t-3.3-.285H421.85l0.162,0.488a8.1,8.1,0,0,1,3.014,2.727,7.737,7.737,0,0,1,1.059,3.3v0.407q0.079,1.875.082,5.944V344.2q-0.082,4.888-.082,5.782,0,11.481-.162,17.264a4.65,4.65,0,0,1-1.059,3.014,7.221,7.221,0,0,1-2.687,2.036v0.49q0.407,0,1.3-.083a29.135,29.135,0,0,1,3.176-.162q4.072,0,7.41.326v-0.49a5.81,5.81,0,0,1-2.891-2.117,6.846,6.846,0,0,1-1.1-3.339q-0.41-9.527-.408-17.1,0-1.384-.082-4.4-0.079-3.176-.082-4.8,0-3.092.164-4.643h0.408l36.156,36.32q1.547,1.71,1.955,1.71c0.432,0,.648-0.381.648-1.139,0-.109-0.027-0.38-0.08-0.816-0.053-.649-0.082-1.273-0.082-1.872q-0.161-3.744-.162-6.515,0-2.2.082-7.735,0.079-3.99.08-6.107v-7.656q0-6.675.326-9.69a12.445,12.445,0,0,1,.937-4.072,4.91,4.91,0,0,1,2.565-2.6v-0.407q-4.562.325-6.922,0.326a22.11,22.11,0,0,1-2.768-.245Q461.752,325.313,461.1,325.231Zm60.912,9.609q0.489,0,.488-0.978,0-.568-0.082-2.278-0.164-1.793-.162-2.607,0-2.687-.57-2.687a2.007,2.007,0,0,0-.732.164,3.507,3.507,0,0,1-.9.162,21.443,21.443,0,0,1-4.072-.569l-0.976-.163q-3.5-.57-6.27-0.855a49.214,49.214,0,0,0-4.967-.285,33.161,33.161,0,0,0-11.564,1.953,28.137,28.137,0,0,0-9.121,5.375,24,24,0,0,0-5.9,7.939,22.466,22.466,0,0,0-2.076,9.488,21.13,21.13,0,0,0,2.117,9.283,23.567,23.567,0,0,0,5.945,7.7,28.757,28.757,0,0,0,8.877,5.171,30.154,30.154,0,0,0,10.584,1.874,53.77,53.77,0,0,0,9.283-.733,36.9,36.9,0,0,0,8.144-2.445,4.306,4.306,0,0,0,2.443-2.117c0.164-.325.49-0.947,0.976-1.872a21.87,21.87,0,0,0,1.182-2.076,3.1,3.1,0,0,0,.365-1.1c0-.218-0.162-0.326-0.488-0.326a3.761,3.761,0,0,0-.732.732,20.946,20.946,0,0,1-1.791,1.872,18.8,18.8,0,0,1-7.98,3.665,41.892,41.892,0,0,1-9.691,1.221,20.813,20.813,0,0,1-8.469-1.791,23.5,23.5,0,0,1-12.092-12.214,20.989,20.989,0,0,1-1.752-8.389,20.36,20.36,0,0,1,1.588-8.1,18.731,18.731,0,0,1,4.6-6.474,20.937,20.937,0,0,1,7.291-4.276,28.648,28.648,0,0,1,9.566-1.506,26.538,26.538,0,0,1,10.668,1.955,11.306,11.306,0,0,1,3.094,1.912,18.037,18.037,0,0,1,2.281,2.485A2.067,2.067,0,0,0,522.014,334.84ZM534.8,372.626q2.2,0,7.086.325h0.244v-0.487a5.8,5.8,0,0,1-2.809-2.119,6.718,6.718,0,0,1-1.1-3.256q-0.489-11.4-.486-17.1v-7.654q0-6.677.324-9.771a12.421,12.421,0,0,1,.938-4.071,4.907,4.907,0,0,1,2.564-2.606v-0.326q-0.9,0-2.769.164-2.769.163-4.152,0.162-2.607,0-7-.326v0.326a7.063,7.063,0,0,1,2.93,2.85,10.379,10.379,0,0,1,.9,3.665q0.243,4.235.367,8.8t0.121,8.957q0,11.481-.08,17.264a5.2,5.2,0,0,1-1.1,3.014,6.776,6.776,0,0,1-2.728,2.036v0.487Q532.272,372.626,534.8,372.626Zm22.965,0.732q8.224,0,12.623-3.989a12.436,12.436,0,0,0,4.4-9.528,9.918,9.918,0,0,0-1.141-4.357,15.056,15.056,0,0,0-2.809-3.705,26.922,26.922,0,0,0-3.666-3.012q-1.913-1.3-5.006-3.259a59.5,59.5,0,0,1-7.9-5.7,7.173,7.173,0,0,1-2.605-5.456q0-2.445,2.605-4.438a9.071,9.071,0,0,1,5.619-2,19.235,19.235,0,0,1,4.8.652,11.018,11.018,0,0,1,4.234,2.036,10.228,10.228,0,0,1,2.2,2.769q1.137,1.875,1.627,1.872a0.487,0.487,0,0,0,.326-0.366,1.561,1.561,0,0,0,.164-0.609q0-1.3-.244-3.91a34.654,34.654,0,0,1-.326-4.072c0-.379-0.137-0.568-0.406-0.568a5.537,5.537,0,0,0-1.711.325,4.5,4.5,0,0,1-1.465.326,26.363,26.363,0,0,1-4.154-.489,27.714,27.714,0,0,0-4.234-.488q-6.841.081-10.465,3.623a11.3,11.3,0,0,0-3.625,8.348,8.416,8.416,0,0,0,.979,4.03,13.472,13.472,0,0,0,2.525,3.339,22.284,22.284,0,0,0,3.418,2.728q1.875,1.22,4.725,2.931a52.81,52.81,0,0,1,8.266,5.863,8.027,8.027,0,0,1,2.728,6.108,7.1,7.1,0,0,1-3.258,6.107,11.984,11.984,0,0,1-7,2.281,15.683,15.683,0,0,1-5.457-1.223A12.147,12.147,0,0,1,548.8,366.6a7.737,7.737,0,0,1-1.426-1.914,24.022,24.022,0,0,1-1.018-2.241,1.547,1.547,0,0,0-.49-0.895,0.949,0.949,0,0,0-.812.652,2.87,2.87,0,0,0-.326,1.3,14.139,14.139,0,0,0,.162,2.077q0.161,1.1.326,1.993l0.082,0.409a6.192,6.192,0,0,0,.367,2.442,2.015,2.015,0,0,0,1.586,1.059l0.979,0.243q3.255,0.9,5.211,1.263A23.4,23.4,0,0,0,557.762,373.358Zm66.531-38.519q0.489,0,.488-0.978,0-.568-0.082-2.278-0.164-1.793-.164-2.607,0-2.687-.568-2.687a2,2,0,0,0-.732.164,3.522,3.522,0,0,1-.9.162,21.443,21.443,0,0,1-4.072-.569l-0.976-.163q-3.5-.57-6.271-0.855a49.153,49.153,0,0,0-4.967-.285,33.15,33.15,0,0,0-11.562,1.953,28.168,28.168,0,0,0-9.123,5.375,24,24,0,0,0-5.9,7.939,22.468,22.468,0,0,0-2.078,9.488,21.128,21.128,0,0,0,2.117,9.283,23.572,23.572,0,0,0,5.947,7.7,28.77,28.77,0,0,0,8.875,5.171,30.157,30.157,0,0,0,10.586,1.874,53.786,53.786,0,0,0,9.283-.733,36.9,36.9,0,0,0,8.144-2.445,4.312,4.312,0,0,0,2.443-2.117c0.164-.325.486-0.947,0.976-1.872a21.77,21.77,0,0,0,1.18-2.076,3.077,3.077,0,0,0,.367-1.1c0-.218-0.162-0.326-0.488-0.326a3.7,3.7,0,0,0-.732.732,20.95,20.95,0,0,1-1.791,1.872,18.816,18.816,0,0,1-7.983,3.665,41.876,41.876,0,0,1-9.689,1.221,20.806,20.806,0,0,1-8.469-1.791,23.517,23.517,0,0,1-12.094-12.214,21.024,21.024,0,0,1-1.752-8.389,20.361,20.361,0,0,1,1.59-8.1,18.73,18.73,0,0,1,4.6-6.474,20.918,20.918,0,0,1,7.291-4.276,28.648,28.648,0,0,1,9.566-1.506,26.538,26.538,0,0,1,10.668,1.955,11.337,11.337,0,0,1,3.094,1.912,18.157,18.157,0,0,1,2.281,2.485A2.057,2.057,0,0,0,624.293,334.84Zm33.142-9.445a30.2,30.2,0,0,0-10.586,1.872,28.3,28.3,0,0,0-8.836,5.171,24.337,24.337,0,0,0-5.945,7.7,21.4,21.4,0,0,0-.041,18.647,23.566,23.566,0,0,0,5.945,7.7,28.755,28.755,0,0,0,8.877,5.171,30.157,30.157,0,0,0,10.586,1.874,32.348,32.348,0,0,0,10.668-1.751,26.524,26.524,0,0,0,8.834-5.05,23.7,23.7,0,0,0,5.9-7.736,22.113,22.113,0,0,0,2.119-9.65,24,24,0,0,0-1.834-9.405,21.669,21.669,0,0,0-5.373-7.613,25.058,25.058,0,0,0-8.715-5.09A34.556,34.556,0,0,0,657.435,325.395Zm0,2.769a21.98,21.98,0,0,1,8.428,1.587,19.594,19.594,0,0,1,6.76,4.6,20.763,20.763,0,0,1,4.479,7.369,28.255,28.255,0,0,1,1.588,9.73,18.991,18.991,0,0,1-1.588,7.858,17.826,17.826,0,0,1-4.479,6.108,19.909,19.909,0,0,1-6.76,3.908,25.505,25.505,0,0,1-8.428,1.344,18.52,18.52,0,0,1-8.183-1.832,20.526,20.526,0,0,1-6.6-5.049,23.062,23.062,0,0,1-4.318-7.329,24.557,24.557,0,0,1-1.506-8.51,20.79,20.79,0,0,1,1.506-7.98,18.189,18.189,0,0,1,4.275-6.31,19.121,19.121,0,0,1,6.555-4.072A23.288,23.288,0,0,1,657.435,328.163ZM483.69,115.889V290.7c0,7.873-7.33,14.116-16.016,14.116H338.736c-8.961,0-16.016-6.243-16.016-14.116V115.889c0-7.872,7.055-14.385,16.016-14.385H467.675C476.36,101.5,483.69,108.017,483.69,115.889Zm-26.136,70.93c-5.219-2.08-11.214,1.319-13.338,2.711q-0.067-.282-0.1-0.412c1.751-1.153,5.194-3.376,7.1-4.309,2.38-1.164,5.891-1.137,8.112-.909,2.041,0.209,5.25.9,5.423,0.391a42.545,42.545,0,0,0-3.625-4c-3.375-3.625-7.917-5.417-14,1.125-1.3,1.4-3.109,5.861-3.808,7.658l-0.112.011c0.412-1.853,1.215-6.848-.872-11.127-2.5-5.125-8.125-4.875-10.75-3.875-1.7.646-6.2,4.762-6,4.75,2-.125,5.024-0.934,7-0.375a8.013,8.013,0,0,1,4.953,2.961,87.494,87.494,0,0,1,5.072,7.723l-0.323.031a27.989,27.989,0,0,0-6.346-6.108c-6.17-4.438-10.452,6.557-10.971,7.674s4.128-3.355,9.909-2.446c2.536,0.4,5.154,1.047,6.686,1.454,0.017,0.14.035,0.3,0.056,0.5a20.617,20.617,0,0,0-9.829-.064c-5.575,1.445-4.634,9.377-4.166,11.563,0.347,1.614,1.942-3.342,5.75-6.125a43.32,43.32,0,0,1,8.3-4.791c0.362,4.1.83,15.969-3.427,33-3.2,12.81-10.106,26.414-13.946,33.4-0.567-10.319-2.107-41.706-1.179-63.2,0.851-19.68,6.233-54.6,7.774-64.307a22.477,22.477,0,0,1,6.828,5.644c2.12,2.785,5.29,11.223,6.12,10.683,1.82-1.186,1.234-13.461-3.97-15.515a25.319,25.319,0,0,0-8.85-1.62c0.022-.135.042-0.263,0.062-0.384,2.154-.217,6.715-0.533,9.853.259,4.549,1.148,9.394,4.506,11.35,5.1,1.158,0.353-2.806-7.992-8.5-9.734-4.79-1.465-10.111,1.712-12.554,3.461,0.031-.194.053-0.325,0.065-0.4,1.65-1.29,4.64-3.58,6.346-4.6,2.211-1.318,5.611-1.573,7.779-1.53,1.992,0.039,5.142.382,5.27-.128a24.991,24.991,0,0,0-6.333-3.486c-1.722-.383-7.27-2.827-10.968,1.573-2.009,2.39-2.819,6.054-3.117,7.917l-0.48-.085c0.049-2.019-.065-7.081-2.248-9.713-2.891-3.486-8.5-3.316-10.287-2.721a21.339,21.339,0,0,0-5.356,3.4c0.127,0.51,4-.893,5.951-0.51a11.135,11.135,0,0,1,5.952,3.082c1.438,1.484,3.927,4.682,5.181,6.318l-0.034-.006s-0.054.172-.146,0.476a9.123,9.123,0,0,0-7.967-4.833c-6.759-.255-13.9,6.376-14.283,7.524s10.33-3.443,14.666-2.933a65.782,65.782,0,0,1,7.265,1.308c-0.038.129-.082,0.278-0.124,0.422a22.812,22.812,0,0,0-9.683.894c-5.281,1.845-5.461,13.758-4.834,15.837,0.465,1.534,3.573-7.228,7.034-10.227a64.324,64.324,0,0,1,7.142-5.334c-2.574,8.915-9.779,35.582-12.361,63.032-0.776,8.257-1.079,17.152-1.117,25.642A72.175,72.175,0,0,0,412.208,209c-5.77-17.789-21.662-33.285-28.318-39.2a68.878,68.878,0,0,1,9.562,3.7c4.483,2.161,9.577,9.752,9.829,8.027,0.447-3.06-3.039-14.611-9.1-15.043-4.776-.341-9.5,1.591-11.3,2.43-0.285-.247-0.544-0.469-0.773-0.662,1.426-.459,4.663-1.488,8.224-2.534,4.786-1.406,17.74,1.9,17.088.644s-9.98-7.6-17.545-6.037a10.5,10.5,0,0,0-8.359,7.429c-0.244-.2-0.413-0.34-0.512-0.42,0.584-1.954,1.813-5.742,3.085-7.583,1.615-2.339,3.986-2.855,6.062-3.062,3.125-.313,8.188.562,9.063,0.25,1.061-.379-4.563-4.25-8.688-5-6.276-1.141-9,1.437-10.437,6-1.112,3.528-.132,8.058.341,9.843l-0.382.43c-0.6-1.85-2.148-5.89-4.847-8.193-4.754-4.056-11.174-2.842-12.951-2.123a27.17,27.17,0,0,0-6.168,4.871c0.228,0.524,3.545-.407,5.675-0.806,2.317-.434,6.919,1.63,9.524,2.648,2.258,0.881,6.536,3.193,8.28,4.151l-0.365.41c-3.067-1.555-10.188-4.511-15.678-1.756-6.337,3.179-9.351,13.81-8.062,13.166,2.177-1.088,7.2-6.006,12.306-8.258,3.661-1.613,9.348-2.116,11.777-2.263q0.194,0.175.442,0.4c-3.163.765-10.261,2.855-10.821,6.335-1.006,6.241,1.487,15.563,3.785,16.111,1.046,0.25,1.539-9.555,2.691-13.182a26.5,26.5,0,0,1,5-8.647c4.274,4.108,15.62,16.344,24.081,37.546,5.756,14.424,4.02,39.331,3.244,47.555-5.829-1.4-9.952-2.856-9.952-4.93,0-3.5,6.334-4.333,6.334-4.333s-9.751-.676-9.751,5.25c0,7.791,33.5,11.917,33.583,19.083C428.389,290.5,339,289.167,339,289.167s107.084,9.051,107.084-15.583c0-5.72-6.622-9.294-14.948-11.89,2.42-5.484,9.161-21.322,11.949-33.693,4.094-18.169,2.491-31.416,1.525-36.6,1.62,1.492,4.836,4.42,7.767,6.888,2.375,2,3.878,12.152,4.75,11.625,1.916-1.157,4.85-14.49-2.875-17.5a31.661,31.661,0,0,0-9.831-1.979c-0.027-.127-0.054-0.253-0.078-0.364a34.838,34.838,0,0,1,9.9,1.258c4.571,1.564,9.258,5.421,11.214,6.2C466.61,197.99,463.252,189.091,457.555,186.819Zm62.708,221.969a7.481,7.481,0,0,1-1.084,3.941,5.665,5.665,0,0,1-2.527,2.39,10.267,10.267,0,0,1-3.842.579H504.03v-1.03h0.4a1.252,1.252,0,0,0,.948-0.228,4.8,4.8,0,0,0,.206-1.834V396.281a12.694,12.694,0,0,0-.061-1.533,0.435,0.435,0,0,0-.23-0.345,1.846,1.846,0,0,0-.832-0.152h-0.412v-1.039H510.1a20.575,20.575,0,0,1,3.58.222,6.379,6.379,0,0,1,2.108.832,5.321,5.321,0,0,1,1.734,1.818,5.157,5.157,0,0,1,.725,2.7,5.061,5.061,0,0,1-2.109,4.155,5.455,5.455,0,0,1,2.843,1.87A6.326,6.326,0,0,1,520.263,408.788Zm-11.361-5.6h2.229c1.717-.007,2.719-0.481,3.2-1.329a5.708,5.708,0,0,0,.817-2.839,4.757,4.757,0,0,0-.611-2.519,3.752,3.752,0,0,0-1.795-1.489,9.83,9.83,0,0,0-3.673-.526H508.9v8.7Zm8.177,6.9a6.913,6.913,0,0,0-.87-3.673,3.38,3.38,0,0,0-1.856-1.642,18.37,18.37,0,0,0-4.168-.313H508.9v6.467a9.649,9.649,0,0,0,.1,1.749,1.944,1.944,0,0,0,.419.74,2.313,2.313,0,0,0,1.07.633,7.855,7.855,0,0,0,2.373.26,4.165,4.165,0,0,0,3.269-1.031A4.609,4.609,0,0,0,517.078,410.088Z" transform="translate(-100.839 -101.504)"/></svg>