<?xml version="1.0" encoding="utf-8"?>
<!-- Generator: Adobe Illustrator 24.0.3, SVG Export Plug-In . SVG Version: 6.00 Build 0)  -->
<svg version="1.1" id="Capa_1" xmlns="http://www.w3.org/2000/svg" xmlns:xlink="http://www.w3.org/1999/xlink" x="0px" y="0px"
	 viewBox="0 0 14 24" style="enable-background:new 0 0 14 24;" xml:space="preserve">
<style type="text/css">
	.st0{fill-rule:evenodd;clip-rule:evenodd;fill:#FFFFFF;}
</style>
<title>money</title>
<g id="App">
	<g id="Detalle-de-procedimiento">
		<g id="Pago">
			<path id="Fill-1" class="st0" d="M6,11c-2.7,0-4-1.6-4-3.5S3.3,4,6,4V11z M12,16.5c0,1.8-1.3,3.5-4,3.5v-7
				C10.7,13,12,14.6,12,16.5z M14,16.5c0-2.8-2-5.5-6-5.5V4h2c1.1,0,2,0.9,2,2h2c0-2.2-1.8-4-4-4H8V0H6v2C2,2,0,4.7,0,7.5S2,13,6,13
				v7H4c-1.1,0-2-0.9-2-2H0c0,2.2,1.8,4,4,4h2v2h2v-2C12,22,14,19.3,14,16.5z"/>
		</g>
	</g>
</g>
</svg>
