<?xml version="1.0" encoding="utf-8"?>
<!-- Generator: Adobe Illustrator 24.0.3, SVG Export Plug-In . SVG Version: 6.00 Build 0)  -->
<svg version="1.1" id="Capa_1" xmlns="http://www.w3.org/2000/svg" xmlns:xlink="http://www.w3.org/1999/xlink" x="0px" y="0px"
	 viewBox="0 0 17 16" style="enable-background:new 0 0 17 16;" xml:space="preserve">
<style type="text/css">
	.st0{fill:#FFFFFF;}
</style>
<title>Pagos</title>
<desc>Created with Sketch.</desc>
<g id="App">
	<g id="Cuenta-principal" transform="translate(-65.000000, -414.000000)">
		<g id="Historial" transform="translate(32.000000, 186.000000)">
			<g id="_x33_" transform="translate(0.000000, 196.000000)">
				<g id="Icono" transform="translate(22.100000, 20.800000)">
					<g id="Pagos" transform="translate(11.000000, 11.000000)">
						<g id="Shape">
							<path class="st0" d="M14.8,13h-2.4c-1.5,0-2.8-1.2-2.8-2.8s1.2-2.8,2.8-2.8h2.4c0.2,0,0.3-0.2,0.3-0.3v-1
								c0-0.7-0.6-1.3-1.3-1.4l-2-3.5c-0.2-0.3-0.5-0.5-0.8-0.6c-0.4-0.1-0.7,0-1,0.1l-6.8,4H2c-0.8,0-1.4,0.6-1.4,1.4v8.3
								c0,0.8,0.6,1.4,1.4,1.4h11.8c0.8,0,1.4-0.6,1.4-1.4v-1C15.2,13.2,15,13,14.8,13z M12.3,3.4l0.8,1.3h-3L12.3,3.4z M4.6,4.7
								l5.8-3.4c0.2-0.1,0.3-0.1,0.5-0.1c0.2,0,0.3,0.2,0.4,0.3l0,0L5.9,4.7H4.6z"/>
							<path class="st0" d="M15.4,8.5H13c-1.1,0-2,1-2,2.1s0.9,2.1,2,2.1h2.4c0.6,0,1-0.5,1-1.1V9.6C16.4,9,15.9,8.5,15.4,8.5z
								 M13,11.3c-0.4,0-0.7-0.3-0.7-0.7s0.3-0.7,0.7-0.7s0.7,0.3,0.7,0.7C13.7,11,13.4,11.3,13,11.3z"/>
						</g>
					</g>
				</g>
			</g>
		</g>
	</g>
</g>
</svg>
