<?xml version="1.0" encoding="utf-8"?>
<!-- Generator: Adobe Illustrator 22.0.1, SVG Export Plug-In . SVG Version: 6.00 Build 0)  -->
<svg version="1.1" id="Capa_1" xmlns="http://www.w3.org/2000/svg" xmlns:xlink="http://www.w3.org/1999/xlink" x="0px" y="0px"
	 viewBox="0 0 100 100" style="enable-background:new 0 0 100 100;" xml:space="preserve">
<g>
	<path d="M66.1,14H33.9C22.9,14,14,22.9,14,33.9v32.3c0,11,8.9,19.9,19.9,19.9h32.3c11,0,19.9-8.9,19.9-19.9V33.9
		C86,22.9,77.1,14,66.1,14L66.1,14z M79.6,66.1c0,7.4-6,13.5-13.5,13.5H33.9c-7.4,0-13.5-6-13.5-13.5V33.9c0-7.4,6-13.5,13.5-13.5
		h32.3c7.4,0,13.5,6,13.5,13.5V66.1z M79.6,66.1"/>
	<path d="M50,31.4c-10.2,0-18.6,8.3-18.6,18.6c0,10.2,8.3,18.6,18.6,18.6c10.2,0,18.6-8.3,18.6-18.6C68.6,39.8,60.2,31.4,50,31.4
		L50,31.4z M50,62.2c-6.7,0-12.2-5.5-12.2-12.2c0-6.7,5.5-12.2,12.2-12.2S62.2,43.3,62.2,50C62.2,56.7,56.7,62.2,50,62.2L50,62.2z
		 M50,62.2"/>
	<path d="M69.3,26c-1.2,0-2.4,0.5-3.3,1.4c-0.9,0.9-1.4,2.1-1.4,3.3c0,1.2,0.5,2.4,1.4,3.3c0.9,0.9,2.1,1.4,3.3,1.4
		c1.2,0,2.4-0.5,3.3-1.4c0.9-0.9,1.4-2.1,1.4-3.3c0-1.2-0.5-2.4-1.4-3.3C71.8,26.5,70.6,26,69.3,26L69.3,26z M69.3,26"/>
</g>
</svg>
