<svg id="Capa_1" data-name="Capa 1" xmlns="http://www.w3.org/2000/svg" viewBox="0 0 215.09 295.16"><defs><style>.cls-1{fill:#1d8bae;stroke:#1d8bae;stroke-miterlimit:10;stroke-width:0.25px;}</style></defs><title>logo_ae-1</title><path class="cls-1" d="M219.1,166.64c-16.75,22.45-38,59.86-37,91.89-11.92-23.35,20-72.44,37-91.89" transform="translate(-44.38 -10.67)"/><path class="cls-1" d="M44.49,21.17C58,42.42,91.85,83.43,118.26,106.78c3.55,2.69,9,11.07,9.67,14.66-2.26-2.69-7.09-11.07-11.6-14.66C92.17,86.12,54.48,40.93,44.49,21.17" transform="translate(-44.38 -10.67)"/><path class="cls-1" d="M135,48.71c-17.4-13.47-35.44-26-40.92-32C99.58,26.26,119.23,40,138.56,53.5A26.73,26.73,0,0,1,135,48.71" transform="translate(-44.38 -10.67)"/><path class="cls-1" d="M151.45,62.18c5.15,3.59,9.66,6.58,14.49,10.18-3.86-3.3-8.05-6.59-12.88-10.18h-1.61" transform="translate(-44.38 -10.67)"/><path class="cls-1" d="M123.74,29.85a2.39,2.39,0,0,0,0,2.1c1.61,1.49,5.16,1.49,6.77,3.29a18.44,18.44,0,0,1,1.28,3.89c-1,3.29,2.26,2.4,2.58,3.29s-1.29,2.1,1.29,3.6a48.24,48.24,0,0,1,4.19,2.39c4.83,3.29,1.61,5.69,5.48,8.68,1.28,1.2,4.18,2.39,22.55-4.49,1,.3,4.83,9.88-.33,20.65,6.13-7.78,4.19-18.85,1.61-23-10.63,3.59-20,9-23.83,4.78-2.58-3.29.32-3.89-3.87-7.18-1.29-1.2-2.9-2.39-3.54-2.39-2.58-1.2.32-3.3,0-3.89-.33-1.2-4.19-.3-4.19-2.7-.32-1.49-1-3.59-2.26-4.49-2.57-1.19-4.19-1.19-5.15-2.09a1.29,1.29,0,0,1,0-1.5c1.61-3.29,1.61-14.37.32-20a36,36,0,0,1-2.9,19.15" transform="translate(-44.38 -10.67)"/><path class="cls-1" d="M204.92,248.65c-1.28-40.11,38-64.05,54.45-85.6-17.08,18.26-60.57,48.19-58,87.1,1.61-.3,2.9-.6,3.54-1.5" transform="translate(-44.38 -10.67)"/><path class="cls-1" d="M99.26,305.82h0c1.29-70.34,12.24-94.28,14.82-110.75a42.39,42.39,0,0,0,0-15.56c-3.55-12.57-10.31-11.37-14.5-20.95-4.83-10.78,9.66-21.85,13.21-25.74,1.61-2.1,6.76-5.69,10.31-14.67-5.48,9-8.06,10.78-10.63,13.17-2.9,3.29-20.94,14.67-15.79,28.14,2.58,6.28,10.31,12,12.89,16.16,2.57,4.49,3.54,7.18,2.57,12.27-7.41,32-15.78,42.5-12.88,117.93" transform="translate(-44.38 -10.67)"/></svg>