<svg xmlns="http://www.w3.org/2000/svg" viewBox="0 0 40.55 50.69"><defs><style>.cls-1{fill:#fff;}</style></defs><title>notifications</title><g id="Capa_2" data-name="Capa 2"><g id="Capa_1-2" data-name="Capa 1"><path id="notification_bell" class="cls-1" d="M38,35.48H35.48V20.28c0-9-6-14-12.67-15V0H17.74V5.27c-6.67,1-12.67,6-12.67,15V35.48H2.53a2.53,2.53,0,0,0,0,5.07H12.67v2.53a7.6,7.6,0,0,0,15.21,0V40.55H38a2.53,2.53,0,1,0,0-5.07Zm-15.21,7.6a2.53,2.53,0,0,1-5.07,0V40.55h5.07Zm7.6-7.6H10.14V20.28c0-6.76,5.07-10.14,10.14-10.14h0c5.07,0,10.14,3.38,10.14,10.14Z"/></g></g></svg>