<?xml version="1.0" encoding="UTF-8"?>
<svg width="13px" height="20px" viewBox="0 0 13 20" version="1.1" xmlns="http://www.w3.org/2000/svg" xmlns:xlink="http://www.w3.org/1999/xlink">
    <!-- Generator: Sketch 52.5 (67469) - http://www.bohemiancoding.com/sketch -->
    <title>Recetas</title>
    <desc>Created with Sketch.</desc>
    <g id="App" stroke="none" stroke-width="1" fill="none" fill-rule="evenodd">
        <g id="Receta-detalle" transform="translate(-63.000000, -233.000000)" fill="#6575A5">
            <g id="Prox.-Cita-Confirm-Box" transform="translate(35.000000, 184.000000)">
                <g id="Principal">
                    <g id="Recetas" transform="translate(28.000000, 49.000000)">
                        <g fill="none">
                            <path d="M12.5071449,3.2812963 C12.4785597,3.24844444 12.4486818,3.21637037 12.4176591,3.18522222 L9.80927557,0.56637037 C9.80820455,0.565296296 9.80713352,0.564222222 9.80613636,0.563222222 C9.680125,0.437333333 9.46448011,0.53062963 9.46448011,0.708962963 L9.46448011,3.41674074 C9.46448011,3.52955556 9.55562784,3.62096296 9.66808523,3.62096296 L12.354358,3.62096296 C12.5297841,3.62096296 12.622483,3.41388889 12.5071449,3.2812963 Z" id="Path" fill="#4B3348"></path>
                            <path d="M12.7583551,6.01559259 L8.71834659,6.01559259 C8.33480966,6.01559259 8.03621591,5.7012963 8.05482955,5.31711111 C8.05482955,5.31674074 8.05479261,5.31633333 8.05479261,5.31596296 L8.05479261,1.20418519 C8.05479261,1.09140741 7.96364489,1 7.8511875,1 L1.27765625,1 C0.572,1 0,1.57362963 0,2.28125926 L0,18.6817407 C0,19.3894074 0.572,19.963 1.27761932,19.963 L11.6843409,19.963 C12.3899233,19.963 12.9619602,19.3893704 12.9619602,18.6817407 L12.9619602,6.21977778 C12.9619233,6.10703704 12.8708125,6.01559259 12.7583551,6.01559259 Z M3.2329375,5.50466667 L4.25569034,5.50466667 L4.25569034,4.49407407 C4.25569034,4.10896296 4.56702557,3.79674074 4.95104261,3.79674074 C5.33505966,3.79674074 5.64639489,4.10896296 5.64639489,4.49407407 L5.64639489,5.50462963 L6.66922159,5.50462963 C7.05323864,5.50462963 7.36457386,5.81685185 7.36457386,6.20196296 C7.36457386,6.58707407 7.05323864,6.8992963 6.66922159,6.8992963 L5.64646875,6.8992963 L5.64646875,7.94018519 C5.64646875,8.3252963 5.33513352,8.63751852 4.95111648,8.63751852 C4.56709943,8.63751852 4.2557642,8.3252963 4.2557642,7.94018519 L4.2557642,6.8992963 L3.23301136,6.8992963 C2.84899432,6.8992963 2.53765909,6.58707407 2.53765909,6.20196296 C2.53765909,5.81685185 2.84892045,5.50466667 3.2329375,5.50466667 Z M9.74678693,16.5273333 L3.21491477,16.5273333 C2.83089773,16.5273333 2.5195625,16.2151111 2.5195625,15.83 C2.5195625,15.4448889 2.83089773,15.1326667 3.21491477,15.1326667 L9.74678693,15.1326667 C10.130804,15.1326667 10.4421392,15.4448889 10.4421392,15.83 C10.4421392,16.2151111 10.130804,16.5273333 9.74678693,16.5273333 Z M9.74693466,14.1074074 L3.2150625,14.1074074 C2.83104545,14.1074074 2.51971023,13.7951852 2.51971023,13.4100741 C2.51971023,13.024963 2.83104545,12.7127407 3.2150625,12.7127407 L9.74689773,12.7127407 C10.1309148,12.7127407 10.44225,13.024963 10.44225,13.4100741 C10.44225,13.7951852 10.1309517,14.1074074 9.74693466,14.1074074 Z M9.74693466,11.69 L3.2150625,11.69 C2.83104545,11.69 2.51971023,11.3777778 2.51971023,10.9926667 C2.51971023,10.6075556 2.83104545,10.2953333 3.2150625,10.2953333 L9.74689773,10.2953333 C10.1309148,10.2953333 10.44225,10.6075556 10.44225,10.9926667 C10.44225,11.3777778 10.1309517,11.69 9.74693466,11.69 Z" id="Shape" fill="#4B3348" fill-rule="nonzero"></path>
                        </g>
                    </g>
                </g>
            </g>
        </g>
    </g>
</svg>