<?xml version="1.0" encoding="UTF-8"?>
<svg width="31px" height="43px" viewBox="0 0 31 43" version="1.1" xmlns="http://www.w3.org/2000/svg" xmlns:xlink="http://www.w3.org/1999/xlink">
    <!-- Generator: Sketch 52.5 (67469) - http://www.bohemiancoding.com/sketch -->
    <title>logo_renew</title>
    <desc>Created with Sketch.</desc>
    <g id="Symbols" stroke="none" stroke-width="1" fill="none" fill-rule="evenodd">
        <g id="Menú" transform="translate(-305.000000, -8.000000)">
            <g id="Iconos">
                <g transform="translate(34.000000, 8.000000)">
                    <g id="logo_renew" transform="translate(238.000000, 0.000000)">
                        <rect id="Rectangle" x="0" y="0" width="97" height="62"></rect>
                        <path d="M54.9966727,32 C54.9966727,32 48.2582041,31.4236956 44.7928331,20.9640509 C44.7928331,20.9640509 42.4499468,14.2699678 45.8191811,7.39236257 C49.1884154,0.514757309 49.1884154,0 49.1884154,0 C49.1884154,0 47.8718771,3.68834802 51.2535736,8.13652259 C54.6228079,12.5846972 57.6653556,18.4741922 57.9430837,22.512799 C58.2208119,26.5659533 57.5202604,29.798853 54.9966727,32" id="Path" fill="#F1DADC" fill-rule="nonzero"></path>
                        <path d="M53.9903866,30.9426002 C53.9903866,30.9426002 49.2269149,29.0663376 45.180225,30.6080894 C41.1344972,32.1648513 41.0815804,36.52743 39.711517,38.4036926 C38.3414537,40.2799553 36.0179263,42.5057388 35,43 C35,43 38.7455454,42.1122597 41.2778535,42.0114776 C43.8101616,41.8946133 51.4455709,41.2406017 52.8156343,36.034241 C54.1856976,30.8257359 53.9903866,30.9426002 53.9903866,30.9426002" id="Path" fill="#4F3249" fill-rule="nonzero"></path>
                        <g id="Group" opacity="0.8" transform="translate(33.000000, 28.000000)" fill="#D8CBD1" fill-rule="nonzero">
                            <g id="Path">
                                <path d="M20.9934667,2.68434783 C20.9934667,2.68434783 16.562,-0.0939130435 12.4096,0.0652173913 C8.25626667,0.224347826 7.434,3.79826087 5.6616,5.42608696 C3.8892,7.05391304 1.14146667,8.68173913 0.0784,8.84086957 C0.0784,8.84086957 3.77533333,9.33652174 6.1432,10.2208696 C8.51106667,11.1234783 15.1704,14.2904348 18.3484,8.75217391 C20.6892,4.63043478 20.9934667,2.68434783 20.9934667,2.68434783"></path>
                            </g>
                        </g>
                        <path d="M58.7808389,28.3634578 C58.7808389,28.3634578 59.2800896,27.6588535 59.8180345,28.2117439 C60.4324243,28.8196178 59.3055712,29.4407285 59.1649505,29.5517139 C59.0111171,29.6626993 58.4609032,29.7869214 58.4609032,29.7869214 C58.4609032,29.7869214 57.7955502,29.8979068 57.4878834,31.2653685 C57.206642,32.4943532 55.656983,34.6214028 55.35026,34.8841021 C55.0558059,35.1468014 54.7613519,35.0358161 55.2992968,33.7793396 C55.8495107,32.5208268 56.8480121,30.4630157 58.7808389,28.3634578" id="Path" fill="#D1BD86" fill-rule="nonzero"></path>
                        <path d="M59,29 C59,29 62.320331,25.0634361 61.9747862,18.9441997 C61.9747862,18.9441997 61.7499606,17 60.697821,17 C59.6456814,17 60.98356,19.1192364 61.1031716,19.5503671 C61.2238908,19.9638767 62.500856,22.7527166 59,29" id="Path" fill="#D1BD86" fill-rule="nonzero"></path>
                        <path d="M59,29 C59,29 62.8145143,25.9344097 63.9657654,19.4526825 C63.9657654,19.4526825 64.2246643,17.360231 63.3185182,17.0286329 C62.4113111,16.6983883 63.0596194,19.3241036 63.0596194,19.8005221 C63.0585583,20.278294 63.505265,23.583447 59,29" id="Path" fill="#D1BD86" fill-rule="nonzero"></path>
                    </g>
                </g>
            </g>
        </g>
    </g>
</svg>