<?xml version="1.0" encoding="UTF-8"?>
<svg width="17px" height="18px" viewBox="0 0 17 18" version="1.1" xmlns="http://www.w3.org/2000/svg" xmlns:xlink="http://www.w3.org/1999/xlink">
    <!-- Generator: Sketch 52.5 (67469) - http://www.bohemiancoding.com/sketch -->
    <title>Cuenta</title>
    <desc>Created with Sketch.</desc>
    <g id="App" stroke="none" stroke-width="1" fill="none" fill-rule="evenodd">
        <g id="Cuenta-principal" transform="translate(-66.000000, -511.000000)" fill="#FFFFFF">
            <g id="Historial" transform="translate(32.000000, 186.000000)">
                <g id="4" transform="translate(0.000000, 294.000000)">
                    <g id="Icono" transform="translate(22.100000, 20.800000)">
                        <g id="Cuenta" transform="translate(12.000000, 11.000000)">
                            <g fill="none">
                                <polygon id="Path" fill="#4B3348" points="8.4998774 16.9743475 10.4206731 16.5608969 8.94310337 15.1827534"></polygon>
                                <path d="M8.12085096,15.7941054 L8.43866106,14.5095762 C8.4394375,14.5064126 8.44058173,14.5034395 8.44148077,14.500352 C8.44299279,14.4950538 8.44450481,14.4897556 8.44630288,14.4845336 C8.44810096,14.4793117 8.44989904,14.4749283 8.45181971,14.4702018 C8.45374038,14.4654753 8.45541587,14.4612825 8.45745913,14.4568991 C8.45987019,14.4516771 8.46252644,14.4466076 8.46522356,14.4416525 C8.46722596,14.4378408 8.4693101,14.4342197 8.47139423,14.4305987 C8.47454087,14.4252623 8.47789183,14.4201547 8.48132452,14.4150471 C8.48353125,14.4118072 8.48573798,14.4086054 8.48806731,14.4054417 C8.49182692,14.4003341 8.49579087,14.395417 8.4998774,14.3905762 C8.50237019,14.387565 8.50486298,14.3845919 8.50747837,14.3816951 C8.5115649,14.3770067 8.51618269,14.372509 8.52067788,14.3680874 C8.52251683,14.366296 8.52415144,14.3642758 8.52603125,14.3625987 L12.8089279,10.367713 C11.6132885,8.07381839 9.40230769,6.70852018 6.86538462,6.70852018 C5.00511058,6.70852018 3.28647596,7.45122197 2.0260649,8.799787 C0.756704327,10.1579955 0.0414375,12.0511323 0.00175721154,14.1472018 C0.752209135,14.5001996 3.83366346,15.8565022 6.86538462,15.8565022 C7.28474604,15.8558783 7.70379303,15.8350516 8.12085096,15.7941054 Z" id="Path" fill="#4B3348"></path>
                                <polygon id="Path" fill="#4B3348" transform="translate(12.683883, 13.068739) rotate(-45.000000) translate(-12.683883, -13.068739) " points="9.16522637 11.6842897 16.1145907 11.9261469 16.2025388 14.4531885 9.25317446 14.2113313"></polygon>
                                <ellipse id="Oval" fill="#4B3348" cx="6.86538462" cy="3.04932735" rx="3.26923077" ry="3.04932735"></ellipse>
                                <path d="M17,10.265713 C16.9999366,9.77240858 16.6813096,9.32770735 16.1926786,9.13895102 C15.7040476,8.95019469 15.1416276,9.05455075 14.7676466,9.40336323 L16.6169687,11.1282915 C16.8630652,10.9000406 17.0009966,10.589422 17,10.265713 Z" id="Path" fill="#4B3348"></path>
                            </g>
                        </g>
                    </g>
                </g>
            </g>
        </g>
    </g>
</svg>