<svg id="Capa_1" data-name="Capa 1" xmlns="http://www.w3.org/2000/svg" viewBox="0 0 290.1 294.66"><defs><style>.cls-1{fill:#1d8bae;stroke:#1d8bae;stroke-miterlimit:10;stroke-width:0.25px;}</style></defs><title>logotipo_ae</title><path d="M23.87,253.26H8.22l-3.29,8h-1l11.94-28h.83l11.94,28H27.17Zm-15.23-.82H23.46l-7.41-17.3h-.21Z" transform="translate(-3.9 -2.87)"/><path d="M43,242.15a6.7,6.7,0,0,0-2.27-.42c-4.53,0-7.2,4.53-7.2,4.53V261.5H32.31V246.06a15,15,0,0,0-.61-4.74h1.23a19.64,19.64,0,0,1,.41,3.71h.21s2.88-4.12,7.2-4.12a6.06,6.06,0,0,1,2.48.41Z" transform="translate(-3.9 -2.87)"/><path d="M45.7,246.06a14.74,14.74,0,0,0-.62-4.74h1.23a19.2,19.2,0,0,1,.42,3.71h.2s2.88-4.12,7-4.12a7.64,7.64,0,0,1,6.8,4.53h.2s3.09-4.53,7.41-4.53c3.92,0,7.21,3.09,7.21,7.82V261.5H74.11V248.73c0-4.11-2.88-7-6-7-4.12,0-7.21,4.94-7.21,4.94a15.7,15.7,0,0,1,.21,2.06V261.5H59.7V248.73c0-4.11-2.89-7-6-7-4.12,0-7,4.53-7,4.53V261.5H45.28V246.06Z" transform="translate(-3.9 -2.87)"/><path d="M88.93,240.7c5.56,0,10.09,4.53,10.09,10.71s-4.53,10.71-10.09,10.71-10.09-4.53-10.09-10.71c.21-6.38,4.53-10.71,10.09-10.71m0,.83c-4.73,0-8.85,3.91-8.85,9.88,0,5.77,3.91,9.88,8.85,9.88,4.74,0,8.86-3.91,8.86-9.88s-3.92-9.88-8.86-9.88" transform="translate(-3.9 -2.87)"/><path d="M103.14,246.06a14.74,14.74,0,0,0-.62-4.74h1.24a19.64,19.64,0,0,1,.41,3.71h.2s3.09-4.12,8-4.12,8.24,3.09,8.24,7.82V261.5H119.4V248.73a6.94,6.94,0,0,0-7-7c-4.73,0-8,4.53-8,4.53V261.5h-1.23V246.06Z" transform="translate(-3.9 -2.87)"/><path d="M127.23,261.29H126v-20h1.24ZM130.52,230H132l-4.73,7.62h-.83Z" transform="translate(-3.9 -2.87)"/><path d="M148.23,256.35a14.74,14.74,0,0,0,.62,4.74h-1.24a19.78,19.78,0,0,1-.41-3.71H147s-3.08,4.12-8,4.12c-5.35,0-8-2.88-8-6.59,0-3.91,2.89-6.59,8-6.59a21,21,0,0,1,8,2.06v-1.65c0-4.73-2.88-7.61-7.2-7.61a8.89,8.89,0,0,0-6.38,3.08l-.62-.41a9.2,9.2,0,0,1,7-3.29c5.35,0,8.44,3.09,8.44,8.44v7.41Zm-1.44,0v-4.73a18.35,18.35,0,0,0-8-2.27c-4.53,0-6.8,2.47-6.8,5.77s2.47,5.76,6.8,5.76c4.94.21,8-4.53,8-4.53" transform="translate(-3.9 -2.87)"/><polygon points="158.74 257.6 176.45 257.6 176.45 258.42 157.71 258.42 157.71 230.21 175.63 230.21 175.42 231.03 158.74 231.03 158.74 243.59 171.09 243.59 171.09 244.21 158.74 244.21 158.74 257.6"/><path d="M188.79,261.91a9.88,9.88,0,0,1-8-4.53l.62-.41a9.12,9.12,0,0,0,7.41,4.12c4.53,0,6.79-2.47,6.79-4.94,0-6-13.58-3.09-13.58-10.3,0-2.47,2.47-5.35,7.2-5.35a9.91,9.91,0,0,1,7.21,3.29l-.62.41a9,9,0,0,0-6.59-3.08c-3.91,0-6,2.26-6,4.53,0,6,13.59,3.08,13.59,10.29,0,3.29-2.88,6-8,6" transform="translate(-3.9 -2.87)"/><path d="M202.79,254.91c0,3.91,2.47,6.18,5.35,6.18a6,6,0,0,0,4.53-2.27l.62.41a7.52,7.52,0,0,1-5.35,2.47c-3.71,0-6.38-2.88-6.38-7V241.94H197v-.82h4.53l.61-6h.62v6H210l-.21.82h-7v13Z" transform="translate(-3.9 -2.87)"/><path d="M214.73,251.62c0,5.35,3.91,9.47,8.86,9.47a9.4,9.4,0,0,0,7.82-4.12l.62.41a10.6,10.6,0,0,1-8.44,4.53c-5.56,0-10.09-4.53-10.09-10.71S218,240.5,223,240.5c5.35,0,9.47,4.53,9.47,10.29a2.16,2.16,0,0,1-.21.83Zm16.89-.83c0-5.35-3.92-9.47-8.45-9.47s-8.44,3.91-8.44,9.47ZM227.29,230h1.44L224,237.62h-.83Z" transform="translate(-3.9 -2.87)"/><path d="M239,254.91c0,3.91,2.47,6.18,5.35,6.18a6,6,0,0,0,4.53-2.27l.62.41a7.53,7.53,0,0,1-5.36,2.47c-3.7,0-6.38-2.88-6.38-7V241.94h-4.53v-.82h4.53l.62-6H239v6h7.2l-.2.82h-7.21v13Z" transform="translate(-3.9 -2.87)"/><path d="M252.41,235.14a1.24,1.24,0,1,1,1.24-1.23,1.32,1.32,0,0,1-1.24,1.23m.62,26.15h-1.24v-20H253Z" transform="translate(-3.9 -2.87)"/><path d="M274,244.82a9.2,9.2,0,0,0-7-3.29c-4.74,0-8.85,3.91-8.85,9.88,0,5.76,3.91,9.88,8.85,9.88a9.4,9.4,0,0,0,7.82-4.12l.62.42a10.57,10.57,0,0,1-8.44,4.53c-5.56,0-10.09-4.53-10.09-10.71S261.47,240.7,267,240.7c4.73,0,7.62,3.92,7.62,3.92Z" transform="translate(-3.9 -2.87)"/><path d="M293.38,256.35a14.74,14.74,0,0,0,.62,4.74h-1.24a19.78,19.78,0,0,1-.41-3.71h-.2s-3.09,4.12-8,4.12c-5.36,0-8-2.88-8-6.59,0-3.91,2.88-6.59,8-6.59a21,21,0,0,1,8,2.06v-1.65c0-4.73-2.89-7.61-7.21-7.61a8.89,8.89,0,0,0-6.38,3.08l-.62-.2a9.2,9.2,0,0,1,7-3.3c5.35,0,8.44,3.09,8.44,8.45Zm-1.44,0v-4.73a18.35,18.35,0,0,0-8-2.27c-4.53,0-6.79,2.47-6.79,5.77s2.47,5.76,6.79,5.76c4.94.21,8-4.53,8-4.53" transform="translate(-3.9 -2.87)"/><path d="M78.64,288.06A8.21,8.21,0,0,1,71.43,292c-4.94,0-8.65-3.91-8.65-9.47,0-5.77,3.92-9.47,8.65-9.47a8,8,0,0,1,6.8,3.7l-.42.42a7.7,7.7,0,0,0-6.38-3.5c-4.32,0-8,3.5-8,8.85s3.5,8.85,8,8.85a7.58,7.58,0,0,0,6.8-3.7Z" transform="translate(-3.9 -2.87)"/><path d="M81.73,274.88a.88.88,0,0,1-.83-.82.83.83,0,1,1,1.65,0,.75.75,0,0,1-.82.82m.41,16.68h-.83V278.79h.83Z" transform="translate(-3.9 -2.87)"/><path d="M93.26,279.21a2.82,2.82,0,0,0-1.44-.42c-2.68,0-4.53,2.68-4.53,2.68v9.68h-.83v-9.68a10.79,10.79,0,0,0-.41-3.09h.82a8.5,8.5,0,0,1,.42,2.27h.2S89.34,278,92,278a3.19,3.19,0,0,1,1.65.41Z" transform="translate(-3.9 -2.87)"/><path d="M106.85,288.47a10.79,10.79,0,0,0,.41,3.09h-.83a8.68,8.68,0,0,1-.41-2.27h-.2s-2.06,2.68-4.95,2.68c-3.29,0-5.14-2.06-5.14-4.94v-8h.82v8a4.1,4.1,0,0,0,4.32,4.32c3.09,0,4.95-2.88,4.95-2.88v-9.68h.82l.21,9.68Z" transform="translate(-3.9 -2.87)"/><path d="M121.67,288.88h0c-.21,0-2.06,2.68-4.94,2.68a6.39,6.39,0,0,1,0-12.77,6.56,6.56,0,0,1,4.94,2.68h.21a6.74,6.74,0,0,1,.41-2.26h.82a10.67,10.67,0,0,0-.41,3.08v9.47c0,3.5-2.47,5.77-6.18,5.77a6.18,6.18,0,0,1-4.94-2.47l.41-.41a5.47,5.47,0,0,0,4.33,2.06,5,5,0,0,0,5.35-5.36v-2.47ZM110.76,285a5.8,5.8,0,0,0,5.76,6c3.09,0,4.94-2.88,4.94-2.88v-6.18S119.4,279,116.52,279a5.8,5.8,0,0,0-5.76,6" transform="translate(-3.9 -2.87)"/><path d="M127.64,291.56h-.82V278.79h.82Zm1.85-20h.83l-3.09,4.94h-.41Z" transform="translate(-3.9 -2.87)"/><path d="M141.43,288.47a10.55,10.55,0,0,0,.42,3.09H141a8.68,8.68,0,0,1-.41-2.27h.21s-2.06,2.68-4.94,2.68c-3.3,0-4.95-1.85-4.95-4.12,0-2.47,1.86-4.12,4.95-4.12a11.53,11.53,0,0,1,4.94,1.24v-1c0-3.09-1.86-4.94-4.53-4.94a5.46,5.46,0,0,0-4.12,1.85l-.41-.41a6,6,0,0,1,4.32-2.06,5,5,0,0,1,5.36,5.35v4.74Zm-.61,0v-3.09a12.7,12.7,0,0,0-4.94-1.44c-2.68,0-4.33,1.44-4.33,3.71,0,2.06,1.44,3.7,4.33,3.7s4.94-2.88,4.94-2.88" transform="translate(-3.9 -2.87)"/><path d="M151.52,289.29v7.21h-.82V281.68a10.7,10.7,0,0,0-.41-3.09h.82a8.56,8.56,0,0,1,.41,2.26h.21s2.06-2.67,4.94-2.67c3.71,0,6.38,2.67,6.38,6.79,0,3.91-2.67,6.79-6.38,6.79-3.09.21-4.94-2.47-5.15-2.47Zm0-7.41v6.59s2.06,2.88,4.95,2.88a6.19,6.19,0,0,0,0-12.35c-2.89,0-4.95,2.88-4.95,2.88" transform="translate(-3.9 -2.87)"/><rect x="162.45" y="270.36" width="0.82" height="18.32"/><path d="M181,288.47a10.79,10.79,0,0,0,.41,3.09h-.83a8.68,8.68,0,0,1-.41-2.27h-.2S177.88,292,175,292c-3.3,0-4.95-1.85-4.95-4.12,0-2.47,1.86-4.12,4.95-4.12a11.53,11.53,0,0,1,4.94,1.24v-1c0-3.09-1.86-4.94-4.53-4.94a5.46,5.46,0,0,0-4.12,1.85l-.41-.41a6,6,0,0,1,4.32-2.06,5,5,0,0,1,5.35,5.35l.42,4.74Zm-.62,0v-3.09a12.7,12.7,0,0,0-4.94-1.44c-2.68,0-4.33,1.44-4.33,3.71,0,2.06,1.44,3.7,4.33,3.7s4.94-2.88,4.94-2.88m-1.65-16.88h1l-3.09,4.94h-.41Z" transform="translate(-3.9 -2.87)"/><path d="M188.58,292a6.07,6.07,0,0,1-4.94-2.88l.41-.41a6,6,0,0,0,4.74,2.67c2.68,0,4.32-1.44,4.32-3.29,0-3.91-8.64-2.06-8.64-6.38,0-1.65,1.64-3.3,4.53-3.3a6.74,6.74,0,0,1,4.53,2.06l-.42.41A6,6,0,0,0,189,279c-2.47,0-3.92,1.44-3.92,2.68,0,3.91,8.65,2.05,8.65,6.38,0,2.06-1.85,3.91-5.15,3.91" transform="translate(-3.9 -2.87)"/><path d="M198.26,287.44c0,2.47,1.44,3.91,3.3,3.91a3.76,3.76,0,0,0,2.88-1.44l.41.41a4.45,4.45,0,0,1-3.29,1.65,4.17,4.17,0,0,1-4.12-4.32v-8h-2.68v-.41h2.68l.41-3.92h.41v3.92h4.53l-.21.41h-4.32v7.82Z" transform="translate(-3.9 -2.87)"/><path d="M207.32,274.88a.88.88,0,0,1-.82-.82.82.82,0,1,1,1.64,0,.75.75,0,0,1-.82.82m.41,16.68h-.82V278.79h.82Z" transform="translate(-3.9 -2.87)"/><path d="M221.73,281.06a5.72,5.72,0,0,0-10.09,4.12,5.86,5.86,0,0,0,5.77,6.17,6.11,6.11,0,0,0,4.94-2.67l.41.41a6.75,6.75,0,0,1-5.35,2.88c-3.5,0-6.38-2.68-6.38-6.79,0-3.92,2.67-6.8,6.38-6.8a6.66,6.66,0,0,1,4.94,2.47Z" transform="translate(-3.9 -2.87)"/><path d="M234.5,288.47a10.79,10.79,0,0,0,.41,3.09h-.82a8.5,8.5,0,0,1-.42-2.27h-.2s-2.06,2.68-4.94,2.68c-3.3,0-4.94-1.85-4.94-4.12,0-2.47,1.85-4.12,4.94-4.12a11.53,11.53,0,0,1,4.94,1.24v-1c0-3.09-1.85-4.94-4.53-4.94a5.46,5.46,0,0,0-4.12,1.85l-.41-.41a6,6,0,0,1,4.32-2.06,5,5,0,0,1,5.36,5.35l.41,4.74Zm-.62,0v-3.09a12.7,12.7,0,0,0-4.94-1.44c-2.68,0-4.33,1.44-4.33,3.71,0,2.06,1.45,3.7,4.33,3.7s4.94-2.88,4.94-2.88" transform="translate(-3.9 -2.87)"/><path class="cls-1" d="M191.47,110.17c-10.71,15.44-24.3,41.18-23.68,63.21-7.62-16.06,12.76-49.83,23.68-63.21" transform="translate(-3.9 -2.87)"/><path class="cls-1" d="M79.87,10.11C88.52,24.72,110.14,52.93,127,69c2.27,1.85,5.77,7.62,6.18,10.09-1.44-1.85-4.53-7.62-7.41-10.09-15.44-14.21-39.53-45.3-45.92-58.88" transform="translate(-3.9 -2.87)"/><path class="cls-1" d="M137.73,29.05c-11.12-9.27-22.65-17.91-26.15-22,3.5,6.59,16.06,16.06,28.41,25.32a19.15,19.15,0,0,1-2.26-3.29" transform="translate(-3.9 -2.87)"/><path class="cls-1" d="M148.23,38.31c3.29,2.47,6.18,4.53,9.26,7-2.47-2.26-5.14-4.53-8.23-7h-1" transform="translate(-3.9 -2.87)"/><path class="cls-1" d="M130.52,16.08a1.78,1.78,0,0,0,0,1.44c1,1,3.3,1,4.33,2.26a13.72,13.72,0,0,1,.82,2.68c-.62,2.26,1.44,1.65,1.65,2.26s-.83,1.45.82,2.48a30.71,30.71,0,0,1,2.68,1.64c3.09,2.27,1,3.91,3.5,6,.82.83,2.67,1.65,14.41-3.09.62.21,3.09,6.8-.21,14.21,3.92-5.35,2.68-13,1-15.85-6.79,2.47-12.76,6.17-15.23,3.29-1.65-2.26.2-2.67-2.47-4.94a6.09,6.09,0,0,0-2.27-1.65c-1.65-.82.21-2.26,0-2.67-.2-.83-2.67-.21-2.67-1.86a5.36,5.36,0,0,0-1.45-3.08c-1.64-.83-2.67-.83-3.29-1.45a.92.92,0,0,1,0-1c1-2.26,1-9.88.21-13.79a26.45,26.45,0,0,1-1.86,13.18" transform="translate(-3.9 -2.87)"/><path class="cls-1" d="M182.41,166.58c-.83-27.59,24.29-44.06,34.79-58.88-10.91,12.56-38.7,33.15-37.06,59.91a3.32,3.32,0,0,0,2.27-1" transform="translate(-3.9 -2.87)"/><path class="cls-1" d="M114.88,205.91h0c.82-48.39,7.82-64.86,9.47-76.18a31.57,31.57,0,0,0,0-10.71c-2.27-8.65-6.59-7.82-9.27-14.41-3.09-7.41,6.18-15,8.44-17.71,1-1.44,4.33-3.91,6.59-10.09-3.5,6.18-5.15,7.42-6.79,9.06-1.86,2.27-13.39,10.09-10.09,19.36,1.65,4.32,6.59,8.23,8.23,11.12,1.65,3.08,2.27,4.94,1.65,8.44-4.73,22-10.09,29.23-8.23,81.12" transform="translate(-3.9 -2.87)"/></svg>