<?xml version="1.0" encoding="utf-8"?>
<!-- Generator: Adobe Illustrator 24.0.3, SVG Export Plug-In . SVG Version: 6.00 Build 0)  -->
<svg version="1.1" id="Capa_1" xmlns="http://www.w3.org/2000/svg" xmlns:xlink="http://www.w3.org/1999/xlink" x="0px" y="0px"
	 viewBox="0 0 19 19" style="enable-background:new 0 0 19 19;" xml:space="preserve">
<style type="text/css">
	.st0{fill:#FFFFFF;}
</style>
<title>Anestesia</title>
<desc>Created with Sketch.</desc>
<g id="App">
	<g id="Cuenta-principal" transform="translate(-64.000000, -217.000000)">
		<g id="Historial" transform="translate(32.000000, 186.000000)">
			<g id="_x31_">
				<g id="Icono" transform="translate(22.100000, 20.800000)">
					<g id="Anestesia" transform="translate(10.000000, 10.000000)">
						<g id="Path" transform="translate(0.400000, 0.400000)">
							<polygon class="st0" points="15.3,3.7 15.3,3.7 18.2,0.8 17.4,0 14.5,2.9 11,1.8 9.1,3.8 11.4,6.1 10.7,6.9 8.3,4.5 7.1,5.8 
								9.4,8.1 8.7,8.9 6.3,6.5 5.1,7.8 7.4,10.1 6.7,10.9 4.3,8.5 2.5,10.3 1.3,9.1 0.6,9.8 3.3,12.6 1.6,14.4 1.5,14.4 0.8,13.6 
								0,14.4 3.8,18.2 4.6,17.4 3.8,16.7 5.6,14.9 8.4,17.6 9.1,16.9 7.9,15.7 16.4,7.2 							"/>
						</g>
					</g>
				</g>
			</g>
		</g>
	</g>
</g>
</svg>
