<?xml version="1.0" encoding="utf-8"?>
<!-- Generator: Adobe Illustrator 24.0.3, SVG Export Plug-In . SVG Version: 6.00 Build 0)  -->
<svg version="1.1" id="Capa_1" xmlns="http://www.w3.org/2000/svg" xmlns:xlink="http://www.w3.org/1999/xlink" x="0px" y="0px"
	 viewBox="0 0 14 20" style="enable-background:new 0 0 14 20;" xml:space="preserve">
<style type="text/css">
	.st0{fill-rule:evenodd;clip-rule:evenodd;fill:#FFFFFF;}
	.st1{fill:#FFFFFF;}
</style>
<title>Recetas</title>
<desc>Created with Sketch.</desc>
<g id="App">
	<g id="Cuenta-principal" transform="translate(-67.000000, -315.000000)">
		<g id="Historial" transform="translate(32.000000, 186.000000)">
			<g id="_x32_" transform="translate(0.000000, 98.000000)">
				<g id="Icono" transform="translate(22.100000, 20.800000)">
					<g id="Recetas" transform="translate(13.000000, 10.000000)">
						<g>
							<path id="Path" class="st0" d="M12.5,3.3C12.5,3.2,12.4,3.2,12.5,3.3L9.8,0.6c0,0,0,0,0,0c-0.1-0.1-0.3,0-0.3,0.1v2.7
								c0,0.1,0.1,0.2,0.2,0.2h2.7C12.5,3.6,12.6,3.4,12.5,3.3z"/>
							<path id="Shape" class="st1" d="M12.8,6h-4C8.3,6,8,5.7,8.1,5.3c0,0,0,0,0,0V1.2C8.1,1.1,8,1,7.9,1H1.3C0.6,1,0,1.6,0,2.3
								v16.4C0,19.4,0.6,20,1.3,20h10.4c0.7,0,1.3-0.6,1.3-1.3V6.2C13,6.1,12.9,6,12.8,6z M3.2,5.5h1v-1c0-0.4,0.3-0.7,0.7-0.7
								s0.7,0.3,0.7,0.7v1h1c0.4,0,0.7,0.3,0.7,0.7S7.1,6.9,6.7,6.9h-1v1c0,0.4-0.3,0.7-0.7,0.7S4.3,8.3,4.3,7.9v-1h-1
								c-0.4,0-0.7-0.3-0.7-0.7S2.8,5.5,3.2,5.5z M9.7,16.5H3.2c-0.4,0-0.7-0.3-0.7-0.7s0.3-0.7,0.7-0.7h6.5c0.4,0,0.7,0.3,0.7,0.7
								S10.1,16.5,9.7,16.5z M9.7,14.1H3.2c-0.4,0-0.7-0.3-0.7-0.7s0.3-0.7,0.7-0.7h6.5c0.4,0,0.7,0.3,0.7,0.7S10.1,14.1,9.7,14.1z
								 M9.7,11.7H3.2c-0.4,0-0.7-0.3-0.7-0.7c0-0.4,0.3-0.7,0.7-0.7h6.5c0.4,0,0.7,0.3,0.7,0.7C10.4,11.4,10.1,11.7,9.7,11.7z"/>
						</g>
					</g>
				</g>
			</g>
		</g>
	</g>
</g>
</svg>
