<?xml version="1.0" encoding="UTF-8"?>
<svg width="12px" height="11px" viewBox="0 0 12 11" version="1.1" xmlns="http://www.w3.org/2000/svg" xmlns:xlink="http://www.w3.org/1999/xlink">
    <!-- Generator: Sketch 52.5 (67469) - http://www.bohemiancoding.com/sketch -->
    <title>Reloj</title>
    <desc>Created with Sketch.</desc>
    <g id="App" stroke="none" stroke-width="1" fill="none" fill-rule="evenodd">
        <g id="AE---Confirm" transform="translate(-62.000000, -146.000000)" fill="#9A8498" fill-rule="nonzero">
            <g id="Prox.-Cita-Confirm-Box" transform="translate(35.000000, 121.000000)">
                <g id="Principal">
                    <g id="Hora" transform="translate(27.500000, 22.000000)">
                        <g id="Reloj" transform="translate(0.000000, 3.000000)">
                            <path d="M5.5,10.934188 C8.50854701,10.934188 10.9435897,8.48974359 10.9435897,5.49059829 C10.9435897,2.48205128 8.4991453,0.047008547 5.5,0.047008547 C2.5008547,0.047008547 0.0564102564,2.48205128 0.0564102564,5.49059829 C0.0564102564,8.48974359 2.49145299,10.934188 5.5,10.934188 Z M5.5,0.808547009 C8.08547009,0.808547009 10.1820513,2.90512821 10.1820513,5.49059829 C10.1820513,8.07606838 8.08547009,10.1726496 5.5,10.1726496 C2.91452991,10.1726496 0.817948718,8.06666667 0.817948718,5.49059829 C0.817948718,2.90512821 2.91452991,0.808547009 5.5,0.808547009 Z" id="Shape"></path>
                            <path d="M5.24615385,6.12991453 L7.06068376,6.12991453 C7.27692308,6.12991453 7.44615385,5.96068376 7.44615385,5.74444444 C7.44615385,5.52820513 7.27692308,5.35897436 7.06068376,5.35897436 L5.63162393,5.35897436 L5.63162393,3.12136752 C5.63162393,2.90512821 5.46239316,2.73589744 5.24615385,2.73589744 C5.02991453,2.73589744 4.86068376,2.90512821 4.86068376,3.12136752 L4.86068376,5.74444444 C4.86068376,5.96068376 5.02991453,6.12991453 5.24615385,6.12991453 Z" id="Path"></path>
                        </g>
                    </g>
                </g>
            </g>
        </g>
    </g>
</svg>