<?xml version="1.0" encoding="UTF-8"?>
<svg width="17px" height="16px" viewBox="0 0 17 16" version="1.1" xmlns="http://www.w3.org/2000/svg" xmlns:xlink="http://www.w3.org/1999/xlink">
    <!-- Generator: Sketch 52.5 (67469) - http://www.bohemiancoding.com/sketch -->
    <title>Pagos</title>
    <desc>Created with Sketch.</desc>
    <g id="App" stroke="none" stroke-width="1" fill="none" fill-rule="evenodd">
        <g id="Cuenta-principal" transform="translate(-65.000000, -414.000000)" fill="#FFFFFF" fill-rule="nonzero">
            <g id="Historial" transform="translate(32.000000, 186.000000)">
                <g id="3" transform="translate(0.000000, 196.000000)">
                    <g id="Icono" transform="translate(22.100000, 20.800000)">
                        <g id="Pagos" transform="translate(11.000000, 11.000000)">
                            <g fill="none" id="Shape">
                                <path d="M14.8316226,13.0259972 L12.4030457,13.0259972 C10.8726588,13.0259972 9.62755257,11.7879826 9.62755257,10.2663124 C9.62755257,8.74464212 10.8726588,7.5066276 12.4030457,7.5066276 L14.8316226,7.5066276 C15.0233926,7.5066276 15.1785714,7.35233259 15.1785714,7.16165487 L15.1785714,6.12676904 C15.1785714,5.40338384 14.6142551,4.81508358 13.901265,4.7580355 L11.9087567,1.29763598 C11.7241098,0.97759754 11.4259491,0.74885543 11.0691775,0.653872314 C10.7140973,0.559536002 10.3427869,0.609081162 10.0249809,0.792999779 L3.19454142,4.74691048 L1.9949057,4.74691048 C1.22954963,4.74691048 0.607142857,5.36573987 0.607142857,6.12676904 L0.607142857,14.4058557 C0.607142857,15.1668526 1.22951711,15.7857143 1.9949057,15.7857143 L13.7908086,15.7857143 C14.5561647,15.7857143 15.1785714,15.1668849 15.1785714,14.4058557 L15.1785714,13.3709699 C15.1785714,13.1802922 15.0233926,13.0259972 14.8316226,13.0259972 Z M12.3390357,3.43402843 L13.0949919,4.74691048 L10.0710694,4.74691048 L12.3390357,3.43402843 Z M4.57361997,4.74691048 L10.3742716,1.38925572 C10.5311418,1.29795939 10.7144226,1.27370425 10.8896046,1.32020943 C11.0668032,1.36736142 11.2145337,1.4812312 11.306353,1.64057128 L11.3070686,1.64183255 L5.94329868,4.74691048 L4.57361997,4.74691048 Z" fill="#4B3348"></path>
                                <path d="M15.3683056,8.5 L12.9776746,8.5 C11.8477223,8.5 10.9285714,9.45319531 10.9285714,10.625 C10.9285714,11.7968047 11.8477223,12.75 12.9776746,12.75 L15.3683056,12.75 C15.9332817,12.75 16.3928571,12.2734023 16.3928571,11.6875 L16.3928571,9.5625 C16.3928571,8.97659766 15.9332817,8.5 15.3683056,8.5 Z M12.9776746,11.3333223 C12.6011519,11.3333223 12.2946509,11.0154688 12.2946509,10.625 C12.2946509,10.2345312 12.6011519,9.91667773 12.9776746,9.91667773 C13.3541973,9.91667773 13.6606983,10.2345312 13.6606983,10.625 C13.6607303,11.0154688 13.3542293,11.3333223 12.9776746,11.3333223 Z" fill="#4B3348"></path>
                            </g>
                        </g>
                    </g>
                </g>
            </g>
        </g>
    </g>
</svg>