<?xml version="1.0" encoding="UTF-8"?>
<svg width="19px" height="19px" viewBox="0 0 19 19" version="1.1" xmlns="http://www.w3.org/2000/svg" xmlns:xlink="http://www.w3.org/1999/xlink">
    <!-- Generator: Sketch 52.5 (67469) - http://www.bohemiancoding.com/sketch -->
    <title>Anestesia</title>
    <desc>Created with Sketch.</desc>
    <g id="App" stroke="none" stroke-width="1" fill="none" fill-rule="evenodd">
        <g id="Cuenta-principal" transform="translate(-64.000000, -217.000000)" fill="#FFFFFF" fill-rule="nonzero">
            <g id="Historial" transform="translate(32.000000, 186.000000)">
                <g id="1">
                    <g id="Icono" transform="translate(22.100000, 20.800000)">
                        <g id="Anestesia" transform="translate(10.000000, 10.000000)">
                            <g fill="none" transform="translate(0.400000, 0.400000)" id="Path">
                                <polygon fill="#4B3348" points="15.2808195 3.67433828 15.2808195 3.67430273 18.2 0.755122266 17.4448777 0 14.5259816 2.91893164 11.0440941 1.78487969 9.07842305 3.75051523 11.424268 6.11985664 10.6656977 6.87131758 8.32305195 4.50588633 7.07574766 5.75322617 9.42159258 8.12253203 8.66302227 8.87399297 6.32037656 6.50859727 5.07307227 7.75590156 7.41891719 10.125243 6.66031133 10.8766684 4.31770117 8.51127266 2.545725 10.2832488 1.32963086 9.06715469 0.574508594 9.82227695 3.34759141 12.5953598 1.55002148 14.3929297 1.54991484 14.3930363 0.755122266 13.5982082 0 14.3533305 3.84666953 18.2 4.60175625 17.4448777 3.80696367 16.6500852 5.60481797 14.8525863 8.37772305 17.6254914 9.13284531 16.8703691 7.91692891 15.6544527 16.415298 7.15608359"></polygon>
                            </g>
                        </g>
                    </g>
                </g>
            </g>
        </g>
    </g>
</svg>