<?xml version="1.0" encoding="utf-8"?>
<!-- Generator: Adobe Illustrator 22.0.1, SVG Export Plug-In . SVG Version: 6.00 Build 0)  -->
<svg version="1.1" id="Capa_1" xmlns="http://www.w3.org/2000/svg" xmlns:xlink="http://www.w3.org/1999/xlink" x="0px" y="0px"
	 viewBox="0 0 100 100" style="enable-background:new 0 0 100 100;" xml:space="preserve">
<g id="surface1">
	<path d="M18.8,6.2l-2.1,27.1l27.1-2.1L33.5,21c4.9-2.8,10.6-4.3,16.5-4.3c18.3,0,33.3,15,33.3,33.3v2.9l7,7.2
		c0.8-3.3,1.3-6.7,1.3-10C91.7,27.1,72.9,8.3,50,8.3c-8.3,0-16.1,2.4-22.5,6.6L18.8,6.2z M9.6,40c-0.8,3.3-1.3,6.7-1.3,10
		c0,22.9,18.8,41.7,41.7,41.7c8.3,0,16-2.6,22.4-6.8l8.9,8.9l2.1-27.1l-27.1,2.1L66.5,79c-4.9,2.8-10.6,4.3-16.5,4.3
		c-18.3,0-33.3-15-33.3-33.3v-2.9L9.6,40z"/>
</g>
</svg>
