<svg xmlns="http://www.w3.org/2000/svg" viewBox="0 0 29.25 29.25"><defs><style>.cls-1{fill:#fff;}</style></defs><title>favorite</title><g id="Capa_2" data-name="Capa 2"><g id="Capa_1-2" data-name="Capa 1"><path class="cls-1" d="M20,3.62,18.91,2.56A1.5,1.5,0,0,1,21,.44l7.78,7.78a1.5,1.5,0,0,1-2.12,2.12L25.63,9.28l-5.95,5.95s2.6,7.3-2.12,12l-1.41,1.41L9.07,21.59,1.71,28.95A1,1,0,1,1,.3,27.53l7.36-7.36L.59,13.11,2,11.69C6.7,7,14,9.57,14,9.57Zm-5.43,8.25S7.3,9.22,3.41,13.11L16.14,25.83c4.24-4.24,1.23-11.13,1.23-11.13l6.84-6.84L21.38,5Z"/></g></g></svg>