<?xml version="1.0" encoding="iso-8859-1"?>
<!-- Generator: Adobe Illustrator 18.1.1, SVG Export Plug-In . SVG Version: 6.00 Build 0)  -->
<svg version="1.1" id="Capa_1" xmlns="http://www.w3.org/2000/svg" xmlns:xlink="http://www.w3.org/1999/xlink" x="0px" y="0px"
	 viewBox="0 0 34.784 34.784" style="enable-background:new 0 0 34.784 34.784;" xml:space="preserve">
<g>
	<g>
		<g>
			<path style="fill:#010002;" d="M7.01,34.784c-0.796,0-1.439-0.645-1.439-1.439V2.808c0-0.686,0.483-1.278,1.156-1.412
				C6.909,1.36,7.004,1.291,7.28,1.08c1.518-1.166,3.135-1.824,10.133,0.353c7.2,2.244,9.101,0.68,9.111,0.661
				c0.325-0.566,0.986-0.843,1.619-0.678c0.632,0.168,1.071,0.739,1.071,1.392v15.005c0,0.25-0.066,0.497-0.189,0.714
				c-0.368,0.644-2.696,3.7-12.468,0.661c-6.111-1.903-6.961-1.251-7.523-0.82c-0.164,0.126-0.355,0.272-0.585,0.41v14.566
				C8.449,34.139,7.805,34.784,7.01,34.784z M10.493,15.005c1.462,0,3.577,0.392,6.92,1.433c5.943,1.849,8.222,1.127,8.922,0.737
				V5.229c-1.849,0.47-4.876,0.479-9.778-1.047c-6.115-1.904-6.962-1.251-7.523-0.82C8.87,3.488,8.679,3.634,8.449,3.773v11.598
				C8.98,15.145,9.62,15.005,10.493,15.005z"/>
		</g>
	</g>
</g>
<g>
</g>
<g>
</g>
<g>
</g>
<g>
</g>
<g>
</g>
<g>
</g>
<g>
</g>
<g>
</g>
<g>
</g>
<g>
</g>
<g>
</g>
<g>
</g>
<g>
</g>
<g>
</g>
<g>
</g>
</svg>
