<svg xmlns="http://www.w3.org/2000/svg" viewBox="0 0 40.55 48.16"><defs><style>.cls-1{fill:#fff;}</style></defs><title>home</title><g id="Capa_2" data-name="Capa 2"><g id="Capa_1-2" data-name="Capa 1"><path id="home" class="cls-1" d="M40.55,19.33a2.54,2.54,0,0,0-.74-1.79l-16-16a5.07,5.07,0,0,0-7.17,0L.75,17.36A2.53,2.53,0,0,0,0,19.15V43.62c0,2.8,2.27,4.53,5.07,4.53h7.6c2.8,0,5.07-1.73,5.07-4.53V41.09a2.53,2.53,0,0,1,5.07,0v2.53c0,2.8,2.27,4.53,5.07,4.53h7.6c2.8,0,5.07-1.73,5.07-4.53ZM35.48,41.09c0,1.4-1.13,2-2.53,2H30.41c-1.4,0-2.53-.6-2.53-2V38.56c0-2.8-2.27-5.61-5.07-5.61H17.74c-2.8,0-5.07,2.81-5.07,5.61v2.53c0,1.4-1.13,2-2.53,2H7.6c-1.4,0-2.53-.6-2.53-2V20.65a1.27,1.27,0,0,1,.37-.9l13-13a2.53,2.53,0,0,1,3.58,0L35.11,19.81a1.27,1.27,0,0,1,.37.9Z"/></g></g></svg>