<svg xmlns="http://www.w3.org/2000/svg" viewBox="0 0 50.45 50.69"><defs><style>.cls-1{fill:#fff;}</style></defs><title>user</title><g id="Capa_2" data-name="Capa 2"><g id="Capa_1-2" data-name="Capa 1"><path id="profile" class="cls-1" d="M34.75,27.05a15.21,15.21,0,1,0-19.05,0A24.14,24.14,0,0,0,0,47.88a2.56,2.56,0,0,0,2.53,2.81A2.5,2.5,0,0,0,5,48.43c1-11.31,9.68-18,20.18-18s19.16,6.71,20.18,18a2.5,2.5,0,0,0,2.5,2.26,2.56,2.56,0,0,0,2.53-2.81A24.14,24.14,0,0,0,34.75,27.05Zm-9.53-1.71A10.14,10.14,0,1,1,35.36,15.21,10.15,10.15,0,0,1,25.22,25.35Z"/></g></g></svg>